<svg id="Layer_1" data-name="Layer 1" xmlns="http://www.w3.org/2000/svg" viewBox="0 0 744 702"><defs><style>.cls-1{fill:#b3b3b3;}</style></defs><title>dmp-350_1</title><path class="cls-1" d="M529.78,242V702.17h-9.29c.94-7.92,1.88-15.9,2.83-23.89-3.32,4.19-6.07,9.08-10.15,12.32a18.94,18.94,0,0,1-11.58,3.49c-76.75-2.6-153.52-5.13-230.22-9-5.15-.27-14-11.26-14-17.22.71-143.65,2.58-287.3,3.84-430.95.78-87.8.49-87.71,88.09-89.95,51.18-1.32,102.35-3.37,153.53-3.78,4.28,0,12.38,9.86,12.4,15.17.71,168.69.61,337.39.9,506.08,0,3.73,3.19,7.45,4.89,11.18,1.41-3.72,4-7.43,4.06-11.15q.31-211.22.18-422.43ZM305.14,425.83c1-22.44,2.64-44.89,2.27-67.3-.08-4.72-7.74-9.31-11.91-14-4.13,4.73-11.45,9.23-11.84,14.25-1.51,19.47-1.13,39.11-.67,58.67.09,4,3.17,11.07,5.55,11.37,5.38.69,11.19-2,16.82-3.27Zm-8-76.79c6.49-23.12,10.14-34.56,12.5-46.27.35-1.74-5.39-6.78-8.29-6.76-18.44.12-44.68-7.92-35.73,26.93C267.26,329.35,277.82,333.49,297.13,349ZM462.9,406l19.64-20.62c-6.31-3.77-13.79-11.77-18.68-10.42-10.26,2.84-19.15,10.61-28.6,16.36ZM332.5,280.48c1.92,11.43,3.33,19.8,6.89,40.94.95-21.67,1.34-30.41,1.84-41.85,2.81,5,4,7.12,11.54,20.46-4.15-16.07-5.14-19.93-6.14-23.79ZM444.55,406.54c8.59,5.76,13.33,11.27,18.35,11.54,3.66.2,7.69-6.51,15.23-13.58Zm-93.61,14.88c-2.81-14.37-3.55-18.17-4.29-22l-14.6,4.33c2,11.17,3.6,19.68,5.16,28.19l3.07-.28V400.38C343.65,407,344.78,409.26,350.94,421.42Z"/><path class="cls-1" d="M537.1,417.9c0-87-.25-174.06.63-261.08,0-5.09,9-14.24,14.12-14.49,61-2.88,122.16-4.46,183.26-6.2,3.07-.09,6.19,1.46,9.29,2.24-1.62,2.74-4.58,5.47-4.58,8.2,0,7.7,1.06,15.42,2,23.1.28,2.23,1.67,4.33,2.55,6.49-2.66.8-5.3,1.68-8,2.38-3,.78-6.14,1.39-9.21,2.07,2.16,2.15,4.62,4.08,6.41,6.51,3.89,5.27,10.63,10.78,10.65,16.21q1,244.43.23,488.86c0,3.45-6.58,9.81-10.16,9.87-49.76.72-99.69,2.94-149.24-.3-26.64-1.74-55.17-2.57-51.38-49.36,6.29-77.71,1.71-156.29,1.71-234.5ZM707.2,175.12c-3.14,3-6.23,5-7.66,7.81-.54,1,3.36,6.12,4.29,5.87,7.22-1.94,14.21-4.74,21.27-7.27Z"/><path class="cls-1" d="M445,701.19H256c0-.91,0-1.81.07-2.72H445C445,699.38,445,700.28,445,701.19Z"/><path class="cls-1" d="M548,111.45c-2.34,5.39-4.88,11.21-7.41,17l-2.94-5-16.16,15.57c1.6,1.93-3-3.63-6.68-8.12,3.24-1.68,10.79-3.29,11.65-6.62,1.28-5-2.12-11.21-3.84-18.15Z"/><path class="cls-1" d="M447.11,107.65l26.82-5.72c-1.3,3.63-2,5.64-2.73,7.65l15.7,4.25c1,4.65,2.34,11.13,3.71,17.62l-9.78,5.41c-5.13-9.41-10-19-15.64-28.07-1.08-1.73-5.32-1.9-8.14-2.05-3.35-.18-6.75.43-10.13.7Z"/><path class="cls-1" d="M510.65,89.5,443.4,93.62l10.28-9.52c.61,1.11,1.17,2.27-.44-1,11.44-.77,20.67-1.67,29.92-1.84,2.86,0,5.75,1.88,10.45.55Z"/><path class="cls-1" d="M446.92,107.44c2.17,5.87,4.35,11.73,5.4,14.59,6.81-2.84,4.77-2,4.39-1.84,1.31,3.45,2.51,6.64,3.71,9.82-6,.93-16.52,4-17.24,2.42-3-6.4-3.34-14.17-3.79-21.5-.06-.94,5-2.19,7.7-3.29A2.61,2.61,0,0,0,446.92,107.44Z"/><ellipse class="cls-1" cx="514.25" cy="103.64" rx="39" ry="1.18"/><path class="cls-1" d="M560.09,103l16.08,1.87-.3,3.18h-16Z"/><path class="cls-1" d="M305.36,425.59l-17.09-.65c.2-3.12-.71-8,.82-9,3.42-2.09,9.78-4.28,11.79-2.62,2.89,2.39,3,8.18,4.25,12.5Z"/><path class="cls-1" d="M303.14,365.52,288,363.18c1.53-2.21,3.07-4.41,4.6-6.61l10.48,8.93Z"/><path class="cls-1" d="M303.07,365.5c.73,2.24,1.47,4.47,2.45,7.44H287.76l15.37-7.42Z"/></svg>