<svg id="Layer_1" data-name="Layer 1" xmlns="http://www.w3.org/2000/svg" viewBox="0 0 744 702"><defs><style>.cls-1{fill:#b3b3b3;}</style></defs><title>fabpro-1000_1</title><path class="cls-1" d="M248.3,689.57c-1.09-3.83-3.16-7.66-3.14-11.49q.51-124.7,1.43-249.37.81-129.82,1.71-259.65c.11-12.52.08-25.3,2.55-37.46,3.1-15.28,14.86-21.75,29.93-22.56,25.65-1.37,51.3-2.68,77-4.17q134.41-7.82,268.83-15.79c28.86-1.74,42,10.27,41.83,39.14q-1.77,279.26-3.57,558.51c0,5.76-.26,11.51-.39,17.27H392.36c2.09-9.88-5.52-9.12-11.15-9.67-7-.68-14.23-.24-20.38-7.79,3.13-1.06,5.06-2.19,7.05-2.29,7.47-.37,15-.81,22.44-.46,8.31.4,13.49-2.13,13.4-11.27,0-3.43-.51-6.86-.33-10.27.14-2.75,0-6.75,1.66-8,14.79-11.1,19.95-29.9,36.22-40.89,16.55-11.16,29-28.5,42.91-43.44,8-8.55,15-18,23-26.48,10.48-11,22.15-20.94,32.22-32.3,8.89-10,16.28-21.41,24.38-32.15,5.68-7.52,12-14.62,17-22.61,3-4.88,6.08-6.81,11.63-6.75,21.41.22,42.81.09,64.21.09v-2.48H282.43c16.72.57,33.46.46,50.19.61,9.5.08,11.24,1.92,6.67,10-7.1,12.6-15.44,24.53-23.79,36.37-11.08,15.7-22.71,31-34,46.56a26.05,26.05,0,0,0-3.31,6.76c-1.56,4.48-2.41,9.24-4.31,13.56-3,6.84-6.44,13.5-10.07,20-1.11,2-3.42,3.36-5.18,5-1.62-1.77-4.09-3.3-4.69-5.37-2.35-8.12-4.12-16.42-6.26-25.3-.25,2.84-.64,5.28-.64,7.72q-.11,55-.06,110C247,678.67,247.84,684.12,248.3,689.57ZM440.17,419.2l-.35-.31h-72.4v.31Zm-191,100.44.63-.22V465.63h-.63ZM498.7,419.4l-.19-.33H457.42v.33Z"/><path class="cls-1" d="M251,697c22.15,1.65,44.3,3.25,66.44,5,5.36.42,10.68,1.33,16,2h-104c6.81-14.75,15.88-4.28,24.71-2.52Z"/><path class="cls-1" d="M713,704l32.92-19.07V704Z"/></svg>