<svg id="Layer_1" data-name="Layer 1" xmlns="http://www.w3.org/2000/svg" viewBox="0 0 744 702"><defs><style>.cls-1{fill:#b3b3b3;}</style></defs><title>figure-4_1</title><path class="cls-1" d="M384.54,330.29c5.13-.64,10.25-1.38,15.39-1.89a145.52,145.52,0,0,1,16.64-1.23c5.63.09,7-2.57,6.76-7.52-.48-10-1-20.12-1-30.18-.18-35.6-.17-71.19-.26-106.79,0-9.21-.05-9.22-9.06-9.4-3.59-.07-6.43-.93-6.28-5.38s3.31-4.23,6.41-4.27c8.93-.12,8.94-.14,9-9,0-5.43,0-10.86,0-16.29l2.65,0c0,6.4-.09,12.8,0,19.21.11,6.63,1.95,7.93,8.34,6.17,4.73-1.3,6-4.78,2.08-7.73-6.25-4.73-3.44-10.87-3.48-16.54,0-.89,2.32-2.3,3.74-2.57,2.69-.52,5.51-.39,8.37-1.31l-12.49-2.31c0-.67,0-1.33,0-2a48.69,48.69,0,0,1,6.19-.93c29.57-.57,59.15-.95,88.71-1.64,31.06-.72,62.12-1.69,93.17-2.74,1.91-.06,3.76-1.78,5.64-2.73-1.94-1.1-3.9-3.21-5.81-3.17-24,.48-48,1.28-71.94,2-1.28,0-2.57.18-3.85.2q-49.18.78-98.37,1.58c-4.7.08-9.39.74-14.09.93-4.16.16-8,1.89-12.16-2.48-2.55-2.66-8.9-1.76-13.57-2.32-14.4-1.71-28.81-3.36-44.15-5.14,3.39,5.65-3.84,13.37,2.45,18.31-.57,2.28-1.66,4.56-1.63,6.82.27,21.64,1,43.28,1.07,64.92.19,41.57.06,83.13.06,125.1l11.16,1.31.18,1.38L361.74,335c-.42-11.47-1-22.13-1.16-32.8-.6-49.74-1-99.48-1.59-149.22q-.19-18.32-.77-36.64c-.13-4.09,1.34-5.53,5.57-5.63,34.28-.75,68.56-1.71,102.84-2.65,52.92-1.46,105.83-3.52,158.76-4.1,15.23-.17,30.52,3.8,45.77,6,4.2.59,8.36,1.48,12,2.13v224.1l42.19-4.33c-1.22,123.78-2.42,246.71-3.63,370.18H550.37c0-3.16,0-6.09,0-9q-.39-100.66-.72-201.34c0-7.41-1.23-14.07-6.45-19.51-11.36-11.85-12.9-25.05-8.72-40.84,6-22.76,10.07-46.06,14.58-69.2,1-5.18.77-10.68.52-16-.24-4.87,1.53-6.32,6.3-6.18,20.36.6,40.73.94,61.09,1.25a13.27,13.27,0,0,0,7.2-2.17c-79.94-2.24-159.78-2.78-239.54-6.06ZM480.68,274c-2-.79-3.87-2-5.9-2.29-14-2.17-14.06-2.12-14-16.7,0-.43,0-.85,0-1.28.14-7.45,1.51-8.87,9.22-9,7.28-.08,14.57,0,21.85,0,6.7,0,12.91-5.47,12.6-12.11-1.19-25.4-2.74-50.78-4.19-76.16-.19-3.24-1.7-5.49-5.32-4.7-5.33,1.16-10.53,2.95-15.9,3.89-5,.86-6.84,3.32-6.74,8.28.19,9,0,18-.09,27,0,4.69-2.06,7.3-6.9,8.57a11.75,11.75,0,0,0-6.68,5.58c-3.13,6.3-5.24,13.1-8.12,19.54-.87,2-2.9,3.4-4.4,5.07l-2.49-.82V201.09L441,201a59.16,59.16,0,0,0-1,7.67c0,28.07.26,56.14,0,84.2,0,5.4,1.88,8.61,6.62,8.78,7.09.26,9.59,3.87,10,10.16a25.18,25.18,0,0,0,1,4.17h37.7c.85-3.9,1.55-7.17,2.28-10.43.88-3.95,2.3-7.86,2.57-11.85.49-7.3-3.35-11.38-10.41-12.92-2.78-.61-5.31-2.38-7.95-3.62,10.65,4.16,21.35.45,32,.08.64,0,1.36-1,1.87-1.65,3.28-4.24,7-3.08,11-.28l-9.81,2.12c2.06,1,2.76,1.63,3.47,1.63,13.45.11,26.89.34,40.32,0,2.15,0,5.46-2.42,6.11-4.41,1.76-5.43,4.81-7.45,10.37-7.12,1.59.1,3.31-1.77,5-2.74l-.74-1.95c-2.67.12-6.34-.84-7.82.54-6.32,5.92-14.86,3.81-22,5.83-10.22,2.89-22,.51-33.09,0-11.9-.58-23.79-1.66-35.69-2.44a38.71,38.71,0,0,0-5.73.56Zm117,99.13c-6.29,0-11.75,0-17.2,0-5.94,0-13.85-2.39-17.29.52-3.87,3.28-4,11.26-5.27,17.3-3.13,14.82-6,29.7-9.37,46.6,11.57,0,22,.16,32.46-.18,1.53-.05,3.79-2.29,4.29-3.95,1.5-4.9,2.34-10,3.36-15.05C591.62,403.5,594.57,388.63,597.66,373.14Zm-151.83-67.7a62.37,62.37,0,0,1-.44,7.43c-.24,1.29-.87,3.06-1.85,3.54-6.31,3.11-11.07.06-11.13-6.87q-.54-64.59-1.09-129.16c0-1.28.31-2.74-.18-3.81-.62-1.34-1.92-2.37-2.92-3.53-1,1.37-2.69,2.68-2.8,4.11-.28,3.61.28,7.27.29,10.9q.23,54,.39,108c0,7.9,1.1,15.87.36,23.68-.52,5.6.89,7.44,6.21,7.52,17.68.27,35.36.8,53,1.07,13.93.22,27.86.34,41.78.12,2.2,0,4.74-1.71,6.46-3.32,2.2-2.07,3.72-4.84,5.34-7-2.64.22-6.42.82-10.2.83-23.14,0-46.28-.07-69.42-.08-10.45,0-10.58-.06-12.08-10.53C447.52,307.8,447,307.35,445.83,305.44Zm80.64-102.61h-.24c0-10.47,0-20.94,0-31.42,0-4.07-2.34-7-5.85-4.08s-7.52,7.56-7.73,11.64c-.88,17.48-.44,35-.5,52.55,0,7.37,5.92,5.31,9.82,6,4.52.79,4.52-2.7,4.52-5.82Q526.49,217.27,526.47,202.83Zm101-69.28c.18-5-2.33-6.29-6.1-6.13-6.85.29-13.69.73-20.54.86-30.63.58-61.26,1.05-91.9,1.61q-29.88.56-59.75,1.25a35.68,35.68,0,0,0-4.57.66l.1,1.92C505.48,139.22,566.3,132.51,627.49,133.55Zm-236.85-21.2-.1,2c4.39-.25,8.77-.66,13.16-.72,6.21-.09,14.66-2.44,18.15.67,7.13,6.36,11.46-.79,16.94-.87,28.88-.41,57.75-1.62,86.62-2.28,29.32-.68,58.65-1,88-1.55,3-.06,6-.16,9-.5,1.15-.13,2.21-1,3.31-1.53-.12-.48-.25-1-.37-1.44Zm68,40.72-2.38.59c.2,1.56,1.09,3.46.5,4.63-5,10-1.64,20.56-2.35,30.82-.12,1.64,2.14,3.44,3.3,5.16,1.4-1.75,3.91-3.44,4-5.25a191.84,191.84,0,0,0-.14-23C461.28,161.66,459.66,157.38,458.64,153.07Zm165-15.3,0-2.22L510,138c0,.68,0,1.36,0,2Zm1.25,44.37-.58,0V234h.58ZM443.23,329.51l-.13-1.78-31.42,2,.09,1.66Zm81-60.93,9-3.05c-.89-.93-1.71-2.52-2.69-2.64C527.49,262.54,523.9,262,524.19,268.58Zm47.62,87.5,1.38-2.4-5.13-5.23-2.51,5.81ZM442,145.43l-1.95-.1v10.44H442Zm94.63,118.21c0,.58,0,1.15,0,1.73h12.1c0-.58,0-1.15,0-1.73ZM585,277.9c6.49.91,6.93.55,7-5.68C586.81,270.72,585.14,273.29,585,277.9ZM487.2,262.81l.12,2h12v-2Z"/><path class="cls-1" d="M441.11,337.66l102.26,2.19H441.08Z"/><path class="cls-1" d="M580.32,387.21c.51,3.16,1.06,6.32,1.39,9.51a17,17,0,0,1-3.13.68c-.88-3.11-1.57-6.28-2.28-9.44Z"/></svg>