<svg id="Layer_1" data-name="Layer 1" xmlns="http://www.w3.org/2000/svg" viewBox="0 0 744 702"><defs><style>.cls-1{fill:#b3b3b3;}</style></defs><title>fusion3_1</title><path class="cls-1" d="M745,514.22V679.57c-2.71,0-5.42-.08-8.14-.08-5,0-10,0-15,0a4.46,4.46,0,0,0-1.68.05c-8.42,3.54-17.15,3.65-26.17,3.73s-18.19,2.45-27.31,3.65c-6.28.82-12.72.77-18.88,2.12-17,3.7-33.93,7.81-51.46,8.48-6.74.25-13.45,1.06-20.18,1.54-3.83.28-7.68.33-11.52.64-3.33.26-6.67.58-10,1.17a67.46,67.46,0,0,0-7.11,2H447.19a77.63,77.63,0,0,0,.29-7.76c-.23-3.94,1.13-5.92,5.35-5.9a72.48,72.48,0,0,0,9-.89c2.3-.28,4.24-.92,3.95-3.95-.31-3.21-2.61-2.52-4.52-2.39a90.42,90.42,0,0,0-9.44,1c-3.84.68-4.5-1.31-4.29-4.43s2.4-3.59,4.82-3.86c5.14-.57,10.33-1,15.42-1.83,1.15-.2,2-2.09,3-3.2-1.18-.7-2.41-2.05-3.54-2-7.32.52-14.64,1.21-21.9,2.22-1.35.19-3.48,2.09-3.5,3.23-.17,9.91.05,19.82.16,29.74H388.32c-.39-8.15-1.79-9.7-10-11.41-7.41-1.54-14.39-4-20.51-8.71a68.44,68.44,0,0,0-10.7-6.5c-8.59-4.36-17.38-8.34-25.95-12.72-10.77-5.51-21.37-11.32-32.1-16.9-11.76-6.13-23.87-11.64-35.3-18.32-17-10-35.46-16.19-54.17-21.81a19.07,19.07,0,0,0-4.28-.54c-6.64-.38-6.69-.36-6.74-7-.22-30.76-.54-61.53-.6-92.29q-.27-129.14-.38-258.27c0-11.39-.16-22.78-.25-34.17q-.21-25.29-.42-50.56c0-2.84,1.17-4,4-3.28q10.26,2.65,20.53,5.25c2.41.61,4.86,1.12,7.29,1.68l.36-1.37-30.76-8.29.43-1.86a35.75,35.75,0,0,1,4.76.56c9.24,2.27,18.45,4.66,27.68,6.95q74.76,18.51,149.53,37c6.44,1.58,11.34,5,13.11,11.27a145.89,145.89,0,0,1,5,24.39c.85,8.09.19,16.33.19,24.51h1.27v-28c8.26,4.14,16,2.57,23.75,2.24q52.29-2.27,104.58-4.37,49.45-2,98.92-3.8l47.91-1.84c7-.27,14-.6,21-.76,13.58-.33,27.17-.27,40.73-1,5.94-.3,11.81-2,17.71-3.14V333.3a7.74,7.74,0,0,0-1,2.32c-.65,9.57-1.32,19.13-1.77,28.71-.25,5.26-.8,5.94-6,6.2a65.38,65.38,0,0,0-11.13,1.08c-6.17,1.42-8.43,6.78-6.16,12.57a33.61,33.61,0,0,1,2.68,10.4c.4,8.3,5.41,12.29,12.44,14.7,7.31,2.52,7.42,2.49,7.42,10.42q0,43.62,0,87.25v9.58ZM487.41,369.6l0-.08-8.19-1.85h-.09c-4.84-.2-9.73-.9-14.51-.46-4.62.42-9.13,2-13.68,3.08h.08L449,372.22l-.58.92c-3.14.87-6.29,1.71-9.41,2.64a35.56,35.56,0,0,0-3.39,1.4c-.42-1.29-1.17-2.58-1.21-3.89-.19-6.48-.7-13-.1-19.44.48-5.2-3-7.57-4.56-9.86-3.43,1-6,1.89-8.57,2.45-2.25.49-4.57.58-6.86.87-2.86.35-3.32,2.26-3.1,4.69.24,2.62,1.93,2.86,4,2.69,5.55-.46,11.11-.88,17.19-1.36,0,7.27.16,14.57-.16,21.85-.06,1.2-2.08,2.7-3.51,3.36a58.17,58.17,0,0,1-7.53,2.34l-3.59-4.79c-1.69,2.44-3.22,4.19-4.18,6.22-.42.9.3,2.35.5,3.55l9.08-2.23c-.81.84-1.48,2.17-2.45,2.45a53.92,53.92,0,0,1-6.85,1.16c-.46,3.74-1.23,7.3-1.28,10.86-.32,24.8-.73,49.61-.61,74.41.05,10.18-1.07,20.28,3.07,30.55,2.82,7,7.47,14.07,6.48,22.42-.08.66.44,1.38.45,2.08s.06,2-.42,2.48c-2.65,2.69-5.4,5.21-6.63,9-.71,2.19-2.78,4.18-2.82,6.29-.31,15.29-.27,30.58-.29,45.87a8.37,8.37,0,0,0,.67,3.78c1.18,2.23,17.47,4.74,19.4,2.93,2.69-2.53,5.54-2.15,8.81-1.64s6.61.11,11.37.11c-5.31-7.83-10-14.8-14.78-21.75-3.18-4.68-1.57-8.55,3.78-10.13,15.33-4.52,30.59-9.26,45.86-13.94.15,0,.17-.46.41-1.18-14.93-.32-29.7-1.94-44.49.6-2,.35-5.33.07-6.2-1.19-1.09-1.59-.94-4.73-.17-6.76,1.62-4.29,4.26-8.19,6-12.45,2.92-7.21,7.92-13.35,9.11-21.59.71-4.93,4.93-9.31,7.41-14,3.8-7.27,7.89-14.44,11.07-22s1.58-12.05-5.17-16.62c-6.92-4.69-14-9.11-21-13.78-2.9-2-7.06-3.86-5.33-8.25,1.59-4,5.91-3.36,9.14-2.51,11.55,3,23.23,5.79,34.42,9.84,17.89,6.47,35.44,13.91,53.15,20.89,1.29.51,2.91,1.17,4.08.81,3.38-1,6.53-2.78,9.91-3.76a16.5,16.5,0,0,1,7.14-.58c3.23.55,6.32,1.91,9.48,2.91q5.19,1.62,10.38,3.2l.91-1.53c-1.15-1.27-2.1-2.88-3.5-3.72a32.79,32.79,0,0,0-7.12-3.07c-4.47-1.35-7.3-3.35-6.67-8.84.5-4.44-4.26-7.23-8.42-5.27-2.2,1-4.12,2.66-6.23,3.9a35.33,35.33,0,0,1-3.72,1.65l-.5-1,8.16-6.14c-5.54-1.51-9.61-1.4-13.76,1.06-2.09,1.23-4.85,2.48-7.06,2.14-9.26-1.44-18.43-3.43-27.6-5.33a35.27,35.27,0,0,1-5.05-1.86l.28-1.42c35.72-3.05,70.81-.06,104.89,12.78l.26-1.24L597,443l.35-1.2,16.42.74.43-.88L606.5,435l-1.38,1.28,3.09,5c-7.41-.66-14-1.2-20.54-1.86a20.11,20.11,0,0,1-5.45-1.19c-2.78-1.13-3.76-2.87-1.46-5.63a24.05,24.05,0,0,0,3.88-6.16c2.38-5.84,1-9.19-5-10.92-2.56-.73-5.57-.1-8.36.15-5.27.48-10-1.27-11.45-4.8,7.52-2.33,14.54,1.3,21.72,1.82l.5-1.46-33-13.64c.81-.07,2.08-.23,3.35-.29,10.83-.46,11.74-1.85,8.06-12-4.53,0-9,0-13.4,0-7.44,0-7.53.06-8,7.59-.2,3.13-1.35,3.93-4.41,3.26a66.27,66.27,0,0,0-10.69-1.39c-3.25-.17-4.48-1.59-4.73-4.79-.76-9.4-3.81-12.14-13.36-12.91a11.41,11.41,0,0,1-5.59-1.59c-3.58-2.61-7.2-4.64-11.81-4.17ZM526,586.12l-.93-.53c-.72-.7-1.35-1.8-2.2-2-2.5-.61-5.61-1.91-7.51-1-2.13,1-4,4.08-4.54,6.57-.85,3.62,2.07,6.09,5.84,5.75,3-.27,6-.61,9-1s3.84-1.81,1.72-4.32l-.57-.92C526.52,587.81,526.25,587,526,586.12ZM260.8,258.94l1.8.94c1,1.5,2.83,3,2.81,4.48-.07,4,.34,8.91-1.75,11.75-3.35,4.56-4,5.71.86,9.31a5.9,5.9,0,0,1,1.65,3.2c.06.27-1.47.88-2.21,1.41-1,.71-2.72,1.47-2.75,2.26a5.45,5.45,0,0,0,1.63,4,15.19,15.19,0,0,0,5.11,2.23q22.49,7,45,14c21.05,6.54,42.12,13.05,63.15,19.68,3.45,1.08,4.85.24,4.77-3.42-.13-6.06-.21-12.12,0-18.17.09-3.47-1.25-5.12-4.62-6.07-13.74-3.83-27.39-8-41.1-11.91-20.74-6-41.49-11.82-62.55-17.82a9,9,0,0,0,.57-2.69c-.15-4.11,0-8.35-1-12.25-.41-1.58-3.52-3.21-5.53-3.39C264.77,256.29,262.75,258,260.8,258.94ZM380.26,354.4l-1.2-.59c-1.48,1.66-4.11,3.22-4.26,5-.59,7.44-.51,14.94-.55,22.42,0,5.32-.37,5.82-5.79,6.27-7.76.64-15.54,1-23.27,1.88-6.25.67-9.52,4.35-9.85,10.6-.19,3.59-.14,7.21-.09,10.81.12,9,3.76,12.13,12.71,11.45,7.33-.55,14.68-.86,22-1.37,3.49-.24,4.67,1.56,4.56,4.69-.09,2.82.55,6-3.89,6.28-6.9.45-13.79,1.3-20.69,1.55-1.95.07-3.9-1.62-5.94-2.05-2.26-.47-4.76-.9-6.9-.36-.9.23-1.72,3.05-1.59,4.62.45,5.89,4.34,8.77,10.87,8.39,7.91-.47,15.82-1,23.72-1.54,3.11-.22,4.63,1.05,4.66,4.14l.12,13.81c.2,23.49.44,47,.57,70.47.09,15.09,0,30.18.07,45.26,0,5.45.34,10.9.68,16.33,0,.74,1,1.41,1.6,2.11a11.76,11.76,0,0,0,1.73-2.11,5.38,5.38,0,0,0,.15-2.14q.31-68.91.64-137.82c.11-23.89.32-47.79.19-71.68,0-4.9-1.54-9.78-2-14.7-.21-2.32.43-4.73.78-7.08C379.54,357.47,379.94,355.94,380.26,354.4ZM339.49,580.75l.84-.24c-.28-1.07-.5-2.15-.85-3.19-4.18-12.28-8-24.7-12.71-36.78-3-7.74-4.64-15.83-7.55-23.62-8.06-21.62-15.1-43.61-22.57-65.44-1-2.8-.06-4,2.84-4.23,5.76-.39,11.51-.8,17.25-1.38,6-.62,10-4.16,10.11-9.92.28-14,.11-28,.17-42,0-2.5-1.23-3.16-3.51-3.18-3.78,0-5.76,1.05-5.64,5.45.3,11.25.15,22.5.16,33.76,0,5.32-.59,6-5.75,6.5-4.31.4-8.62.75-12.94,1-3.79.24-8.81,2.14-7.59-5.13,0-.21-.29-.48-.46-.7-4.61-6.18-6-13.24-5.8-20.78.09-4.32-.11-8.65-.1-13,0-2.56-.82-4.39-3.71-4-4.16.6-5.43-1.83-6.56-5.19-5.54-16.55-11.22-33.06-16.92-49.56-6.27-18.13-12.75-36.19-18.84-54.38-2.68-8-4.59-16.23-6.92-24.34-.15-.52-.91-.86-1.89-1.76-.18,1.58-.62,2.61-.35,3.39Q284.8,421.46,339.49,580.75ZM535.81,261.19l71.7-4.83v-1.42H586.75l3.43-3-142.41,8.39,0,1.34c5.66.32,11.33.48,17,1,2.83.28,5.58,1.27,9.44,2.2,2.77-1.36,8-1.26,12.29.84.6.29,1.49.8,1.89.58,7.69-4.28,15.86,2.88,23.65-1,1.19-.59,3.29.61,5,1,.78.19,1.58.75,2.32.66,3.69-.41,7.36-1,11-1.52C533,265.09,535.91,264.89,535.81,261.19Zm94.25,411.64c-.41-6-.71-12.07-1.26-18.08-.4-4.42-2.67-6.52-7.19-6.27a135.42,135.42,0,0,0-18.47,1.95c-2.25.44-4.24,3-6,4.88-.58.65-.4,3,.24,3.46,1,.69,3.2,1,3.89.41,4.51-4.07,10.17-2.45,15.26-3.43,2.25-.43,4.9-.64,5.3,2.73s-1.68,4.27-4.45,4.55c-3.88.39-7.75.78-11.62,1.24-2.63.32-4.13,2.07-3.26,4.46.41,1.14,2.69,2.26,4.12,2.24,4.45-.05,8.9-.81,13.36-.89,1.14,0,3.24,1.43,3.28,2.27.06,1.61-.91,4.59-1.69,4.68-6.31.66-12.68.75-19,1.07-1.87.09-3.72.35-5.58.53.34,2,0,4.66,1.19,5.8,1.4,1.37,4.08,2,6.19,2,4.88-.11,9.74-.8,14.61-1.29C628.31,684.18,630.05,682.24,630.06,672.83ZM567.69,481.24l-.44.14c-2.16,4.75-3.74,9.89-6.59,14.17a203.81,203.81,0,0,1-15.93,20.95c-7.83,9-16.18,17.46-24.5,26-1.25,1.28-3.47,1.79-5.35,2.23-4.75,1.12-9.56,2-14.34,3l.19.93h15.16c-1.79,3.48-3.37,6.22-4.64,9.09-1.44,3.25-1,6.33,2,8.47,3.2,2.26,12.92-.28,14-4,3-10.29,8.17-20,8.15-31.16,0-1.13,1.4-3.07,2.39-3.24,3.14-.54,4.61-2.18,5.55-5.1.54-1.68,2.15-3,3.2-4.54,6.26-9.12,12.71-18.13,18.62-27.47C566.86,488,566.91,484.39,567.69,481.24ZM517.29,685.7l3.53,1.4c-1.53.94-3,2.47-4.6,2.68a55.38,55.38,0,0,1-9.81.08c-2.24-.11-5.06-1.28-5.39,2.2a4.31,4.31,0,0,0,4.68,5,127.87,127.87,0,0,0,16.7-1.83c4-.73,5.61-5.58,4.56-11.26-.73-4-3.31-5.09-6.94-4.75-3.15.29-6.3.75-9.45.76-1.15,0-2.3-1-3.45-1.61,1-1,2-2.68,3.1-2.77,3.93-.33,7.92,0,11.88-.15,1.53-.07,4-.51,4.31-1.4a5.2,5.2,0,0,0-1.3-4.51,7.17,7.17,0,0,0-4.72-1.37c-3.58.09-7.15.69-10.74.95-9.12.66-9.4,5.87-8.7,12.62.35,3.28,2.48,5.17,5.95,5C509.91,686.52,512.91,686.14,517.29,685.7Zm47.09-8c0-2.58.08-5.18,0-7.76-.14-3.82-2-5.88-6-5.54-4.44.38-8.89.63-13.31,1.17-4.16.51-6.39,3-6.4,7.28,0,2.87,0,5.75,0,8.62,0,11.94.9,12.74,12.9,11.14C564.41,690.92,564.41,690.92,564.38,677.73Zm-4.24-310.8c-.89-2.68-1.31-5.28-2.59-7.31-1-1.58-3-3.32-4.73-3.49a63.74,63.74,0,0,0-12.5.23c-6.9.67-10.92,5-12.36,11.46-.46,2.09.47,4.48.77,6.73,3.3-.53,8.26.06,9.56-1.85,2.61-3.83,5.66-4.33,9.46-4.6C551.91,367.82,556.05,367.33,560.14,366.93Zm7,309.85h-.5a68.24,68.24,0,0,0,.11,9.05c.22,1.59,1.42,4.08,2.57,4.33,3.3.71,3.46-2.15,3.52-4.49.1-4.32.08-8.64.1-13,0-2.56,1.11-4,3.84-4.16,2-.1,4-.46,6-.72,3.14-.42,4.53.75,4.27,4.08a93,93,0,0,0-.3,12.49c.08,1.39,1.69,2.7,2.6,4.05,1.11-1.23,3.11-2.41,3.18-3.7.34-6,.34-12.08.08-18.11-.15-3.52-2.39-5.54-6.06-5.24-5.3.42-10.59,1-15.89,1.54-2.39.23-3.6,1.41-3.53,3.92C567.17,670.17,567.11,673.47,567.11,676.78Zm-95.12,9h-.06c0,2.87-.09,5.75,0,8.62.16,4.38,2.3,6.32,6.6,5.95s8.57-.93,12.86-1.38c4-.42,6.48-2.6,6.66-6.61.26-6,.28-12.08,0-18.1,0-1.18-1.8-2.28-2.76-3.42-1,1.18-2.64,2.24-2.87,3.54a52.44,52.44,0,0,0-.33,8.61c-.08,9.49-.09,9.36-9.47,10.65-3.82.53-4.94-1-4.88-4.46.08-4.31.15-8.64-.16-12.94-.08-1.09-1.6-2.08-2.47-3.11-1.05,1-2.86,2-3,3.17A69.62,69.62,0,0,0,472,685.73Zm2.18-180.41.86,1.35c5.05-.37,10.13-1.23,15.15-1,7.84.4,13-3.37,17.1-9.37.6-.87,1.42-2.48,1.08-2.92a4.69,4.69,0,0,0-3.18-1.5c-5.73-.26-11.48-.41-17.22-.38-1.48,0-3.51.36-4.35,1.35C480.26,496.85,477.29,501.14,474.17,505.32ZM490,515.89c-5.69.65-10.63,1.15-15.55,1.77-8.74,1.12-16.4,8.27-18.59,17.26C469.19,535.93,485.39,527.35,490,515.89Zm.36,62.31c-5.56-10-24.16-11.65-34.82-3.44,3.76,3,7.38,8.24,10.92,8.19C474.3,582.83,482.06,580,490.4,578.2Zm-10.47,20.87.47-.69c1.72-.13,3.44-.23,5.16-.4,6.44-.61,12.88-1.14,19.3-1.93,1.73-.21,4.65-.11,3.52-3.38-1.19-3.43-8.12-7.07-11.78-6.24-6.58,1.48-13.13,3.08-19.67,4.74-2.75.69-3.69,2.39-1.52,4.63A29.78,29.78,0,0,0,479.93,599.07Zm41.83,8.58-.26,1.75c2.75.61,5.57,1.93,8.26,1.71,19.25-1.56,38.48-3.39,57.71-5.27a93.71,93.71,0,0,0,9.83-2c-.09-.77-.18-1.53-.28-2.3-12.09,1.44-24.17.89-36.39,3C547.87,606.68,534.73,606.69,521.76,607.65ZM690.15,298.36c0-.59-.07-1.19-.11-1.78L487.08,309l.05.87Zm-4.51-29.67.13-1.15-42.55-10.32c-3.39,7.88,3.2,7.68,6.91,9.76a14.19,14.19,0,0,1-3.25-.23c-1-.14-2.11-.22-3.16-.32l-.05,1.13C657.61,269.56,671.62,269.3,685.64,268.69ZM420.41,327.93c.26-6.24-.18-6.6-5.2-6.83-5.59-.26-4.3,3.68-4.43,6.77-.09,2,0,4,.1,6,.26,5,1.25,5.79,6.1,4.78,3.53-.74,4.81-2.94,3.94-6.52A34.9,34.9,0,0,1,420.41,327.93Zm115.43,352.9c0-3.15.08-6.3,0-9.45-.06-1.84.69-4.32-2.64-4.26-2.81,0-3.18,1.88-3.19,4.07,0,6.45-.16,12.9.07,19.34,0,1.26,1.4,3.35,2.43,3.54,2.45.44,3.42-1.39,3.38-3.78C535.8,687.14,535.84,684,535.84,680.83ZM347.31,225.44l-.43-1.11c-1.32.55-3.13.73-3.89,1.71-5.62,7.37-10.1,15.37-12.08,24.52-.39,1.78-.06,3.71-.06,5.57l1.58.4c3.4-4.55,2.43-11,5.63-15.68C341.42,235.9,344.25,230.59,347.31,225.44Zm64.49,53.8c-.95,6.15-.49,6.61,4.91,6.24,4.58-.32,9.17-.38,13.75-.66s8.91-.65,13.36-1l-.06-.66ZM301.38,234.93c-.56-2.37-.78-4.87-1.77-7s-3.09-2.48-4.09,0a18.18,18.18,0,0,0,.26,14.2c1.07,2.51,3,2.33,4,0C300.64,239.9,300.84,237.41,301.38,234.93Zm65.79,50.57.25,1.66c3.05,0,6.11.07,9.16,0s3.71-2.17,3.73-4.73c0-2.94-1.87-3.35-4.26-3.59C370.78,278.27,370.2,283.38,367.17,285.5Zm244.08-17.29c5.17,0,10.35.11,15.5-.17.5,0,.86-2.5,1.28-3.83-2.86-.42-7.9-1.82-8.24-1.08C617.92,267.21,614.17,266.28,611.25,268.21Zm-353.68-7.53c-1.27-3.05-1.76-6.05-3.5-7.8-1.25-1.26-4.17-.85-7.15-1.31C249.2,256.68,250.15,261.25,257.57,260.68ZM395.25,674.2l4.67,4.14c1.4-1.59,3.24-3,4-4.85.29-.73-2.36-3.67-2.9-3.48C399.18,670.67,397.71,672.28,395.25,674.2ZM267.55,301.72v9.64l4.25-.59C273.55,304.15,273.31,303.58,267.55,301.72Zm63.1-24c3.43-4.37,9.61-1.52,13.6-3.34H323.13l0,.79Zm48.14-5.45-10.37-2.19C368.59,275.46,373,276.67,378.79,272.29ZM677.34,240.2c2.55,2.46,5.12,3.44,8.57,1.77C683.26,237.76,681,237.29,677.34,240.2Zm-385,22.35,1.39.55c1.17-2.79,2.34-5.58,3.84-9.18C291.69,256.11,290.72,258.08,292.3,262.55ZM361,231.06c6.07,3,10.66,6.95,8.66,15.67C374.57,239.91,369.21,231.61,361,231.06Zm316.19,31.32-.1,1.05,20.49,5.06.25-1.05ZM533.12,666c1.31-2.46,2.45-3.68,2.46-4.93,0-.82-1.59-1.66-2.47-2.49-1,1.09-2.35,2.06-2.8,3.34C530.08,662.56,531.53,663.79,533.12,666ZM670.56,276.37l-3.14-3c-.56,1-1.57,2.06-1.55,3.08s1.2,1.73,1.87,2.59Zm-423.11-9.05,1.12,1.17h5.62c-.77-1.74-1.42-3.22-2.08-4.7ZM433.7,325.09l-2,.1c.22,2.69.44,5.37.67,8.06l1.31-.1ZM644.82,253c4.15-2.17,4.23-2.93,1-5.6C645.43,249.55,645.12,251.28,644.82,253Zm38.83,25.73c1.15-2,2.06-2.84,2-3.64s-1.07-1.55-1.66-2.33c-.66.7-1.74,1.32-1.87,2.11S682.76,276.64,683.65,278.74Zm-32,0,2-1.07q-.84-2.32-1.69-4.65c-.74.62-2.18,1.37-2.1,1.83A16.63,16.63,0,0,0,651.69,278.76Z"/><path class="cls-1" d="M745,149.77c-7.34.35-14.69.6-22,1.1-1.74.12-4,.51-5,1.68-3.07,3.64-6.76,2.37-10.34,1.93-2.84-.34-5.63-1.07-8.43-1.66-1.39-.28-2.77-.62-4.21-.95,2.07-4.43,1.33-11.44,9.77-8.55,0-1.95-.47-3.6.12-4.65s2.56-2.83,3.46-2.58a20,20,0,0,0,11,0c3-.82,6.66.53,11.25,1.06L724,139.89c0,.29,0,.58,0,.87,4.53-.28,9.1-.26,13.55-1,1.28-.21,2.19-2.64,3.41-4.25l4,1.29V142c-1.36.86-2.75,2.49-4.07,2.44-5.81-.23-11.6-.94-17.39-1.48l-8.53-.81c-.2.46-.39.92-.59,1.39,1.92,1.75,3.83,5,5.76,5,8.27.08,16.55-.8,24.82-1.32Z"/><path class="cls-1" d="M745,161.89l-10.43-2.77,5.17-2.15c-4.09-4.21-9-.74-12.76-3,6-.43,12-1.94,18,.17Z"/><path class="cls-1" d="M488.53,371.26l-1.08-1.74,0,.08Z"/><path class="cls-1" d="M451.54,371.88l-.48-1.6H451C451.16,370.81,451.35,371.34,451.54,371.88Z"/><path class="cls-1" d="M297.1,172.27c-2.75,3.71-6.91.35-10.37-.38a220.13,220.13,0,0,1-30.05-8.7l54.3-2.46.07.89-18.17,1.59c3.85,1.08,9.31-1.75,9.73,5.71.82-6,4.59-6,8.71-6.17q62.9-2.12,125.8-4.44c20.46-.75,40.92-1.66,61.37-2.54,5.9-.26,11.8-.65,17.7-1.07a28.22,28.22,0,0,0,4-.88c0-.39,0-.78-.07-1.17H497.17c2.43-3.21,4.45-6,6.63-8.63.44-.54,1.54-.49,2.25-.86,1.05-.55,2.64-1,2.95-1.89,1.34-3.88,4-3.62,7.43-3.61,13.76,0,27.52-.5,41.27-.86,3.73-.1,7.5-.78,11.14-.3,1.3.17,2.35,2.93,3.21,4.66a5.62,5.62,0,0,1-2.95,2c-5.1.41-10.24.39-15.35.69-4,.24-8,.73-11.8,1.09l6.9,2.58c1.43-.68,2.88-1.9,4.41-2,6.18-.5,12.38-.71,18.57-.94,5.77-.21,6.07.11,6.5,5.72.08,1,.25,2,.47,3.72,9.29-4.77,17.35.59,25.94,2.28,17.23,3.38,34.61,6,51.84,9.38,23.06,4.52,46,9.47,69.07,14.25a5.93,5.93,0,0,1,3.21,1.62c-3.77.28-7.54.65-11.33.81-19.59.85-39.18,2.07-58.79,2.29-11.21.13-22.44-1.28-33.65-2.23-18.52-1.58-37-3.73-55.55-4.92C546,176,522.32,174.6,498.7,174.3c-30.65-.39-61.16,1.88-90.72,10.85-7.11,2.16-13.8,5.7-20.81,8.25-2.67,1-5.93,1.83-8.56,1.21-25.39-6.05-50.72-12.39-76-18.81C300.68,175.32,299.09,173.59,297.1,172.27Zm252.48-17.66-4.19,5.71.66,1.32,9.62-1.18v-.94l-2.14-1.06c4.3-6.81,12.18-4,18.08-7.11a8.74,8.74,0,0,0-5-1.69c-8.19.22-16.37.59-24.55,1-4.88.23-9.77.48-14.63,1-1,.09-1.93,1.18-2.89,1.81a13,13,0,0,0,3.13,1.4,24.08,24.08,0,0,0,3.87-.17C537.49,154.6,543.48,154.61,549.58,154.61ZM559.66,140c-4.54-2.32-12.07-2-15,.49C547.8,143,556.42,142.81,559.66,140Zm-34.53,5.65h9.77C530.67,141.32,528.1,145.76,525.13,145.65Z"/><path class="cls-1" d="M397.63,195.93c3.87-2,7.54-4.84,11.66-6,11.09-3,22.27-5.86,33.6-7.62,30.35-4.69,60.92-3.77,91.46-2.41q17,.77,34,2.11c8.4.66,16.75,2,25.15,2.56,8,.58,16,.63,24.05.91V187l-219.66,10.1Z"/><path class="cls-1" d="M294.16,154.26c1.44,0,3.06-.46,4.27.06,1.42.61,2.48,2.06,3.7,3.15-1.22.89-2.4,2.46-3.68,2.55-10.05.75-20.13,1.2-30.2,1.76-11.07.61-22.14,1.48-33.21,1.77-4.62.13-9.27-.94-13.79-1.45,1.72-2.66,2.62-4.72,4.11-6.21,3-3,5.94-6.71,9.68-8.3,3.57-1.52,8.13-.79,12.25-1,9.92-.36,19.84-.7,29.77-.94a10.29,10.29,0,0,1,5.06,1.34c-4,2.15-9.53-.11-11.93,5.31h11.27c1.69-2.85,2.59-6.37,4.31-6.83a14.46,14.46,0,0,1,9.72.81c3.25,1.75,2.24,6-1.27,8-5.91-3.44-11.69.47-17.51,1Zm-49.41,1.82h11.47C251.41,151.41,248.33,157.21,244.75,156.08Z"/><path class="cls-1" d="M427.73,386.79l4.74-1.29c0,7.39-.05,14.39,0,21.39,0,4.27.28,8.53.35,12.8.05,3.18-.1,6.36-.05,9.55.5,33.64,1.16,67.27,1.49,100.91.16,16-.21,32-.48,47.94a100.91,100.91,0,0,1-1.12,11.74c-.1.72-1.56,2-1.87,1.83-1.14-.53-2.76-1.41-2.93-2.37a69.75,69.75,0,0,1-.72-9.91c-.28-13.55-.43-27.11-.77-40.66-.05-2-.89-4.05-1.4-6.07-.06-.24-.51-.5-.46-.63,4.07-10.11,1.48-20.69,1.92-31,.63-15.12.05-30.29.18-45.44.21-22.18.58-44.36.9-66.54C427.53,388.33,427.65,387.63,427.73,386.79Z"/><path class="cls-1" d="M547.15,429.81c2.62-4.63-3.64-4.33-3.8-8,1.49-.7,3.17-2,5-2.23a120.86,120.86,0,0,1,17.09-.91c3.71.15,4.14,2,1.8,4.82-.82,1-1.73,1.92-2.63,2.86C558.08,433.07,556.26,433.45,547.15,429.81Z"/><path class="cls-1" d="M448.44,373.15c.16-.32.31-.64.47-.95l1.37.94Z"/><path class="cls-1" d="M374.44,403.46c-.13,6.36-.13,6.36-5.89,6.83-6.45.54-12.9,1-19.34,1.62-3.12.27-4.84-.65-4.94-4.2-.19-6.68.38-8.12,4.48-8.45,7-.55,14.06-.92,21.07-1.53C374.83,397.29,374.68,400.47,374.44,403.46Z"/><path class="cls-1" d="M564.84,254.78l14.61-1.15c0,.38,0,.77.07,1.15Z"/><path class="cls-1" d="M558.54,677.69c0,7-5.29,10.93-12,8.9-.4-.12-1.07-.36-1.09-.59-.31-3.94-1-8-.51-11.81.14-1.19,3.44-2,5.33-3a3.8,3.8,0,0,1,1.28-.11C558.56,670.49,558.56,670.49,558.54,677.69Z"/><path class="cls-1" d="M525.06,585.59l1,.46,0,2.68C525.67,587.69,525.37,586.64,525.06,585.59Z"/><path class="cls-1" d="M526.86,588.63l.45,1-1.4-.93Z"/></svg>