<svg id="Layer_1" data-name="Layer 1" xmlns="http://www.w3.org/2000/svg" viewBox="0 0 744 702"><defs><style>.cls-1{fill:#b3b3b3;}</style></defs><title>intamsys-funmat-ht_1</title><path class="cls-1" d="M394.46,703.19c-5.8-.9-11.57-2.07-17.4-2.65-15.84-1.58-31.71-2.86-47.56-4.35-15.19-1.43-30.39-2.84-45.56-4.51-6-.67-11.25-.07-16,4.13s-9,3-12.58-2.22a10.64,10.64,0,0,0-6.67-4,22.24,22.24,0,0,1-15.22-9c-6.81-8.87-13.5-17.83-20.63-26.44-6.31-7.62-6.65-16.58-6.61-25.63.18-42.77.68-85.55.77-128.32.2-99.54.45-199.08.14-298.62-.06-16.72,5.62-30.33,16-42.67,3-3.52,6.42-6.73,8.82-10.59,5.27-8.48,13.47-10.19,22.38-11.12,15-1.57,30-3.46,45-5.12,13.69-1.52,27.4-2.87,41.09-4.4,13.53-1.5,27-3.16,40.56-4.72,13.36-1.54,26.73-3,40.09-4.55,14.67-1.69,29.32-3.51,44-5.14,14.19-1.58,28.41-2.86,42.59-4.48,17.94-2.05,35.85-4.3,53.78-6.46,1.12-.14,2.25-.23,4.28-.42-.89,1.78-1.46,3-2.08,4.16-6.35,12-12.86,24-19,36.17-4.35,8.59-4.77,18.11-4.78,27.44-.07,158.77.1,317.54-.29,476.31,0,9.07-1.66,18.09,1.71,26.74,2.43,6.25,5.75,12.16,8.77,18.18,2.06,4.11,4.3,8.14,6.45,12.2ZM218.37,571.5l1.47-.81c3.07-.56,6.16-1.72,9.2-1.59,33.86,1.46,67.71,3.13,101.56,4.73q92.92,4.41,185.85,8.86c4,.2,5.46-.67,5.45-5.06q-.21-171.53,0-343c0-4.71-1.22-5.86-5.86-5.5-41,3.15-82,6.07-123,9.08q-71.87,5.26-143.72,10.56c-8.2.6-16.42,1.69-24.61,1.53-6-.12-7.12.08-7.14,6q-.34,152.76-.66,305.53C216.84,565,217.84,568.27,218.37,571.5ZM445.7,615.61c-1.8-6-3.18-10.79-4.75-15.54-.3-.89-1.39-1.52-2.11-2.28-.57,1-1.6,2-1.63,3-.21,5.91-.23,11.83-.21,17.75a13.15,13.15,0,0,0,.78,3.16l1.66-.16v-13.8l1.19-.07L445,622l1.61-.2q2.06-6.78,4.1-13.56l1.44.13v14.19h1.36a12.16,12.16,0,0,0,.82-3c.11-5.91.18-11.83.06-17.75,0-1-1-2.07-1.51-3.1-.83.82-2.07,1.5-2.43,2.5C448.81,605.59,447.47,610.08,445.7,615.61ZM308.87,145.4l3.3,4.8,9.07-5.38.63.65-7,9.91,1.23.87c6.22-4.15,8.57-11.36,13.62-17.31l-15.87,1.58,2.12,5.19-1.2.63c-.81-1.2-1.42-2.66-2.5-3.55s-3.44-1.79-3.7-1.47c-4.13,5.2-8,10.59-12,15.94l2,1.47C302,154.37,305.31,150,308.87,145.4ZM421.12,597.21c-.41,7.95-1.78,15.69-.28,23.27l2,0V604.93c4.17,5.17,4.55,12.22,10.05,17.08,2.14-9.12,1.34-22.75-1.77-24.62v17.49C427.24,608.31,426.71,601.44,421.12,597.21Zm35,25,1.73.76c.57-.82,1.1-1.67,1.71-2.44,1-1.28,1.91-3.29,3.18-3.58,2.75-.63,4.55.79,4.89,3.95.12,1.12,1.38,2.12,2.12,3.18l1.45-.83q-3.29-12.09-6.58-24.2l-2.34.11Zm40.76-10.78a72.82,72.82,0,0,0-.07-7.33c-.11-1-1-2-1.6-2.94-.47.9-1.34,1.79-1.36,2.69-.11,6.42-.09,12.83,0,19.24,0,.77.75,1.52,1.15,2.28l1.37-.07c.26-3.47.51-6.94.79-10.68l6.75.45c.36,3.94.67,7.26,1,10.58l1.58-.14v-24l-1.88-.07c-.18,3.35-.36,6.69-.56,10.34ZM373.33,140.33c1.9-5.06,5.84-4.78,9.61-4.93,5-.2,5-.23,6.31-3.19-8.84.15-17.55.43-21.27,11.33l11.41-1.13c-1.47,4.32-4.12,5-7.55,5.11-3.11.09-6.87-.79-9.18,3.17,14.27,0,19-2.46,21.87-11.42Zm-29.2,3.21-10.73,1.24-.53-2c2.66-1,5.27-2.07,8-2.84s5.26-1.09,7.9-1.62l-.37-1.35C337,136,332,138.56,327.6,147.75l10.59-.79c-1,4.41-4.09,4.42-7.29,4.72a66.32,66.32,0,0,0-8.59,1.9l.53,1.61C331.48,154.78,340.19,154.5,344.13,143.54Zm-79,3.22-1.63-1.55-10.23,13c-1.6-4-3-7.45-5.06-12.5l-13.78,18.15,1.71,1.48,10.54-12.93c1.25,3.12,2.14,5.39,3.06,7.65,1.21,3,2.92,3.46,4.95.78C258.22,156.19,261.66,151.46,265.13,146.76ZM416.42,596.69l-1.57,0a32.7,32.7,0,0,0-.68,4.33c-.1,3.95.24,7.92-.18,11.82-.16,1.56-1.86,3-2.86,4.42-1.2-1.37-3.29-2.65-3.45-4.14-.48-4.38-.16-8.85-.25-13.29a24.66,24.66,0,0,0-.61-3.77l-1.92.14c0,6.79-1.77,13.7,1.12,20.29.78,1.79,4.28,3.76,6,3.37s4.17-3.35,4.52-5.47c.75-4.49.39-9.16.39-13.76A26.15,26.15,0,0,0,416.42,596.69ZM296.47,143l-1.67-1.17-22,17.8.78,1.56c5.44-2.58,9.5-9.31,16.9-6.41.36,1,.82,2.24,1.67,4.62C296.65,153.84,294.46,147.9,296.47,143ZM514.15,626.36l1.87.18c2.28-6.65-.08-13.8,1.14-20.53l4.6-1.3c-1.77-2.05-10.64-4-11.71-2.66a3.12,3.12,0,0,0,.47,3c.65.63,2.08.45,3.63.7Zm-38-2.3,2.45-.18c0-5.63-.14-11.27.12-16.88.05-1.17,1.56-2.3,2.5-3.37a20.85,20.85,0,0,1,2.16-1.92c-.72-.53-1.39-1.44-2.16-1.53a55.53,55.53,0,0,0-7.84-.33c-.7,0-1.37,1-2,1.52.52.53.95,1.25,1.58,1.54a12.24,12.24,0,0,0,2.69.58C476.07,610.54,475,617.4,476.11,624.06ZM267.25,146.22l.18,1.51h6.31l-9.28,13,1,1a21.28,21.28,0,0,0,3.75-3,80.8,80.8,0,0,0,5.76-8c1.8-2.86,4-4.61,7.57-4.51,1.27,0,2.56-.94,3.85-1.46l-.44-1.41C279.77,144.66,273.19,143.66,267.25,146.22Zm90.83-5.65a9,9,0,0,0-1.14-2c-1.06-1-2.25-1.84-3.38-2.74-.07,1.37-.72,3.14-.11,4.05,2.09,3.07.43,5.15-1.27,7.41-1.1,1.47-2.07,3-3.1,4.56l.87.66,20.37-18.15-.39-.73Zm36.6,455.22v23.07l1.55.07c.26-3,.51-6.1.78-9.23l5.07-.85.33-1.39-5.44-2.2V599a10.34,10.34,0,0,0,2.16-.14c1.1-.33,2.15-.82,3.22-1.24-1-.6-1.88-1.52-2.93-1.72A25,25,0,0,0,394.68,595.79Zm-155-446.93c-6.3,3.91-9.72,10.43-13.77,16.42C233,162,235.44,154.66,239.73,148.86Z"/><path class="cls-1" d="M558.36,703.19c-3.9-7.74-8-15.38-11.62-23.26-2.34-5.12-3.92-10.59-5.62-15.29,7.14,1.06,13.66,2.19,20.21,3,10.67,1.26,21.36,2.34,32.06,3.4q19.79,1.95,39.59,3.71a29.24,29.24,0,0,0,5.2-.53c3.91,9.45,8,19.23,12,29Z"/><path class="cls-1" d="M744.85,530.71c-8.75,1.19-17.19,2.36-25.63,3.49-6.51.88-13.08,1.47-19.54,2.66-3.84.71-6.13-.7-7.43-3.92-1.1-2.71-2.33-5.62-2.37-8.46-.32-22.19-.48-44.39-.34-66.58,0-3.11,1.7-6.34,3.18-9.23.49-1,2.81-1.57,4.18-1.41,4.4.54,6-1.78,6.39-5.55a45,45,0,0,0,.22-4.93q0-47.36-.1-94.73a27.3,27.3,0,0,0-1-7.75,6.43,6.43,0,0,0-3.11-3.38c-2.09-1.06-5.66-.88-6.5-2.4-2-3.48-3.6-7.66-3.67-11.59-.36-18.9-.29-37.82-.06-56.73a63.49,63.49,0,0,1,2.07-14.49c1-4,3.69-5.56,8.29-4.14,13.34,4.13,26.76,8.06,40.28,11.53,4.5,1.16,5.41,3.16,5.4,7.44q-.24,122.13-.21,244.25Z"/><path class="cls-1" d="M745,194.86c-9.76-3.71-18.53-6.92-27.15-10.45a5.45,5.45,0,0,1-2.8-4c-.21-16.59-.16-33.18-.15-49.76,0-.43.38-.86.86-1.86,7.44,3.4,14.67,7.2,22.27,10,5.53,2,7.23,5.16,7.09,10.86C744.73,164.4,745,179.16,745,194.86Z"/><path class="cls-1" d="M562.83,132.07c4.29-8,8.08-15.42,12.31-22.6.77-1.3,3.25-2,5-2.25,16.48-1.94,33-3.67,49.48-5.53,3.53-.4,7-1.07,10.65-1.63-3.9,7.68-7.63,15.35-11.73,22.81a7.58,7.58,0,0,1-4.81,3.58c-19.42,2.21-38.88,4.14-58.34,6.11A12.24,12.24,0,0,1,562.83,132.07Z"/><path class="cls-1" d="M699.68,390.79c0,12.48,0,24.95,0,37.43,0,7.7-1.51,9.64-8.61,10.78a4,4,0,0,1-3.3-2c-1.2-3.52-2.63-7.21-2.67-10.84-.26-24.95-.14-49.9-.28-74.84,0-3.9,1.18-5.23,5.21-4.74,9.29,1.14,9.37,1,9.42,10.22.07,11.33,0,22.65,0,34Z"/><path class="cls-1" d="M658.61,94.29c-3.57,7.47-7.19,14.92-10.7,22.42-2.44,5.2-5,10.35-7,15.72-1.18,3.19-2.83,3.94-6.08,4.26-18.3,1.78-36.56,4-54.84,6-10.28,1.12-20.58,2.08-30.87,3.17-3.23.34-4.24-1.5-2.7-3.73a10.24,10.24,0,0,1,5.9-4.16c6.29-1.12,12.72-1.39,19.07-2.17,19.29-2.38,38.55-5.13,57.88-7,4.35-.43,7.73-1.15,10-4.67a17.8,17.8,0,0,0,2.77-6.88c.08-.57-3.14-1.64-5.69-2.9l3.5-5.7,7,6.49c.3-2.29.61-4.73.92-7.18l-1.36-.13,7.37-8.25-5-2.59,8.95-3.59Z"/><path class="cls-1" d="M745.22,562.6c-1,.79-1.91,2.09-3,2.29-17.13,3.22-34.29,6.26-51.43,9.41-4.63.85-7-2.13-9.19-5.25-4.38-6.19-7.22-18.65-6.31-28.64,1,5.07,1.65,9,2.69,12.83a67.69,67.69,0,0,0,3.71,10.67c2.89,6.3,5.24,7.5,12.05,6.32,15.72-2.71,31.41-5.58,47.11-8.38,1.12-.2,2.25-.33,3.38-.5C744.55,561.77,744.88,562.19,745.22,562.6Z"/><path class="cls-1" d="M744.27,224.72c-16.32-5.45-32.66-10.83-48.95-16.37-9.39-3.19-12.75-1.85-16.1,7.46-1.58,4.42-2.51,9.07-4.08,13.51-.4-9,1.39-17.42,7.61-24.25a7.6,7.6,0,0,1,6.52-1.65c17.82,5.67,35.54,11.67,53.25,17.68,1.06.36,1.82,1.59,2.72,2.41C744.91,223.91,744.59,224.32,744.27,224.72Z"/><path class="cls-1" d="M590.5,216.12c6.55,1.12,10.44,4.86,12,10.81,2,7.44-.42,13.66-6.31,18.45-4.13,3.36-8.75,4.68-14.16,2.05,8.75-.48,13.11-5.94,15.31-13.32S598.24,220.23,590.5,216.12Z"/><path class="cls-1" d="M643.27,324.4V294.27l1.9,0c.4,10,.39,20,0,30Z"/><path class="cls-1" d="M420.56,349.57c-.2,3.32-.59,6.69-.5,10.06,0,1.06,1.33,2.08,2.05,3.11.73-1,1.5-2.07,2.18-3.15.15-.23,0-.64,0-1,.14-10.26.14-10.25,10.61-10.22,8.52,0,17.05,0,24.42,0-.52,5.6-1.5,11.58-1.54,17.57-.16,28.95-.07,57.91-.08,86.86,0,10.51,2.6,13.24,12.88,13.39,1.64,0,3.29.08,4.93.08,7.63,0,12.67,5.34,12.82,13.16.38,20.06.92,40.12,1.37,60.17.13,5.76-.23,6-6.18,5.78q-91.47-3.15-183-6.25c-17.91-.61-35.83-1.33-53.75-1.78-4.74-.11-4.7-3-4.69-6.27q.15-47.13.24-94.26.15-74.28.28-148.54c0-6.9,0-6.93,6.62-7.33L455.6,268.53c9.68-.59,19.37-1.15,29-1.89,3.48-.27,5.29.6,5.16,4.49q-.56,17.46-.76,34.92a80.46,80.46,0,0,0,.79,8.58l-41.9,2V322l40.69-1.63c1.91,9.52,1.86,18-6.33,23.95-1.7,1.23-4.28,1.24-7,2,.14-3,.21-4.71.29-6.47.3-6.33.3-6.51-6.28-6.43-13.81.17-27.62.6-41.43.78-1.75,0-3.52-.8-5.13-.42-4,.37-8.06,1-12.1,1.08-9.35.3-12.18,3.89-9.54,12.84.26.89,2.16,1.77,3.33,1.82C409.61,349.68,414.85,349.57,420.56,349.57Zm-75.38-23.93a57.18,57.18,0,0,0,6.23.42q27.55-1,55.11-2.13c11.62-.47,23.24-1.16,34.86-1.46,4.48-.12,5-2,3.49-5.66a12.87,12.87,0,0,0-1.91-.19q-24.84,1.14-49.68,2.33-21.39,1-42.78,2.06C347.83,321.15,345.15,321.41,345.18,325.64Zm-46.4-8.31c-2.62,3.17-2.75,12.17,0,16.68ZM439,358.8l-1.27-.07v12.39l1.27.08Z"/><path class="cls-1" d="M500.69,406.28c0,12.67.68,25.39-.39,38-.34,4.09-4.55,8.84-8.29,11.31-2.48,1.64-8.69,1.2-10.72-.83-3.61-3.61-7.43-7.63-7.3-14.18.47-23.85.26-47.71.08-71.57,0-3.66.87-4.92,4.62-4.83,5.74.15,11.51-.07,17.25-.49,3.65-.26,4.9.82,4.83,4.62C500.55,381,500.69,393.62,500.69,406.28Z"/></svg>