<svg id="Layer_1" data-name="Layer 1" xmlns="http://www.w3.org/2000/svg" viewBox="0 0 744 702"><defs><style>.cls-1{fill:#b3b3b3;}</style></defs><title>omni_1</title><path class="cls-1" d="M723.87,703.87c0-24.76,0-49.52.14-74.28,0-5.44-.62-9.17-7.24-10.23-7-1.1-10.5-6.19-12.07-13.15-1.38-6.1-5.26-11.86-5.59-17.91-.53-9.6.89-19.31,1.65-29,.41-5.09,2-10.21,1.6-15.22-1-14.34,6.22-23.35,19-31.17,4.85,25.76.81,50.94,3.34,75.78.07-1,.19-1.9.2-2.85q1-94.46,2-188.91.71-64.34,1.57-128.67c.14-10,.42-20.09,1.09-30.11.45-6.75-2.65-8.13-8.72-8.19-34.05-.33-68.1-1-102.15-1.59-1.41,0-2.83-.3-4.24-.46l-.08-2c4.1,0,8.2-.11,12.3,0,11.5.36,23,.89,34.49,1.21,18.85.54,37.73.54,56.54,1.63,9.19.53,16.22-1.82,21.69-9.17,1.28-1.71,3.14-3,5.57-5.25.19,3,.42,5,.42,7.05q0,236.48-.06,473c0,3.15.41,6.3.63,9.45Z"/><path class="cls-1" d="M555.57,283l15.77,1c-2.28,4.27-4,7.54-5.58,10.44,4.79-1.74,4.68-1.81,8.55-8.54.6-1,2.83-1.64,4.29-1.62,15.92.24,31.85.51,47.76,1.16,2,.08,4.36,2,6,3.65,10.26,10.53,20.48,21.12,30.41,32a12.46,12.46,0,0,1,2.95,7.73c0,31.13-.25,62.27-.56,93.41,0,2.06-.37,4.73-1.65,6.05-5.57,5.74-11.55,11.09-18.87,18-12.56-31.14-24.87-60.91-36.45-91-2.36-6.12-4.51-10.8-11.59-10.91-7.39-.12-4.16-6.86-6.85-11.57-.58,3.95-1,6.48-1.44,9.84l-15.51-1.21-1.85-8.79c-2.95,4.36-12.49-2.95-11.42,7-12.62,1.39-25,2.67-37.35,4.15-5.11.61-7.23,3.64-9.18,8.73-8.77,22.84-18.55,45.29-27.85,67.93C477,440.13,468.53,459.7,461.2,479.7a163.69,163.69,0,0,0-9.88,62.08c.25,7.33,0,14.66,0,20-2.49,1-4.38,1.22-5.38,2.27a98.53,98.53,0,0,0-9,10.73c-3.62,5.21-6.8,10.74-10.17,16.12L423,588.22l19.4,2.87-.06,1-46.73-2.54c-2.28,11.28-1.79,12.1,8.79,12.85q82.14,5.83,164.3,11.53,40,2.8,80,5.47c5,.32,10,0,16.51,0-11.57,10.2-22.27,19.81-33.24,29.08-1.33,1.13-4.22.74-6.34.57q-88.32-6.94-176.63-14a2.59,2.59,0,0,0-.73,0c-18.78,3.83-30.25-6.63-42.7-18.89s-17.34-25-17.76-42.36c-1.6-65.91-5.08-131.77-6.86-197.68-.25-9.34-1.74-18.54-1.64-27.88.1-9.8-.85-19.61-.66-29.4a16,16,0,0,1,3.59-9.58c8.13-9.15,16.67-18,25.4-26.55,2-1.95,5.36-3.62,8.05-3.56C450,279.88,484.3,281,518.6,282c8.19.23,5.61,6.9,7.39,11.4l5.19-1.54c-1.08-2.55-2.23-5.24-3.75-8.8l9.87-.53c-.21,4.52-.39,8.49-.58,12.47l2.25.32,1.91-11.62,11.31-1.08c-1.41,5.63-2.55,10.21-3.81,15.26C558.09,296.45,555,289,555.57,283Zm2.2,16.86c-2.22,1.94-3.77,4.45-5.51,4.59-4.09.31-4.76,2.3-4.72,5.72.05,4.14-.73,8.33-.25,12.4.25,2.11,2.31,5.62,3.77,5.73,7.61.57,15.28.27,23,.27,0-4.32.19-7.73-.06-11.09a46.82,46.82,0,0,0-1.47-6.71l-7.9,3.68Zm-15.59-2.5-1.95.36c.64,10.8-7.53,5.35-11.12,7.61l-7.42,7.28c-.23-.74-.46-1.47-.68-2.21h-6.74q.26,7.26.52,14.51c2.24-.18,4.47-.44,6.72-.51.62,0,1.23.62,1.89.75,3.89.81,7.75,1.79,11.67,2.27,5.1.62,6.5-1.65,6.06-6.87-.5-5.95-3.41-12.39,1.8-18C543.67,301.66,542.48,299.08,542.18,297.32Zm-19.27,34.19-5.69,4.38c2.13,1.29,4.15,3.3,6.41,3.62,1.74.24,3.78-1.66,5.69-2.6Z"/><path class="cls-1" d="M302.83,197c11.9,16.58,13.09,35.63,13.79,55.18,1.2,33.76,3.54,67.48,5.3,101.22.71,13.69,1.15,27.4,1.71,41.1,1.58,38.91,3,77.82,4.79,116.72q3.4,75.19,7.27,150.36c.54,10.76,1.53,21.49,2.22,32.24.09,1.29-.36,2.61-2.13,4-.56-4.15-1.44-8.29-1.61-12.46C333,658.5,332,631.59,331,604.69a25.06,25.06,0,0,0-.42-5.84c-1.25-4.4-3.71-6.1-8.17-3.28-6.8,4.29-8.91,3.22-11.26-3.94-6.29-19.15-4.73-39.11-6-58.7-2.72-40.79-4.19-81.67-6.27-122.5q-3.64-71.87-7.45-143.72c-.78-14.67-1.49-29.35-2.76-44-.94-11,6.66-17.91,11.34-26.24.2-.37,2.07.2,3.16.33C303.13,196.92,303,197,302.83,197Z"/><path class="cls-1" d="M620.53,215.22c1.54-11.26,2.9-22.55,4.86-33.74.22-1.28,3.79-2.81,5.81-2.82,21.51-.09,43,.16,64.52.19,6,0,8.22,2.11,6.79,8.49-1.7,7.6-2.47,15.42-3.41,23.18-.47,3.92-2.16,5.32-6.2,5.26-24.2-.37-48.39-.5-72.59-.71Z"/><path class="cls-1" d="M492.28,548.32c9.78-7.48,7.88-18.12,6.71-27.72-3.7-30.29,6.43-56.86,20.68-82.5a44.24,44.24,0,0,1,8-11c0,5.69,0,11.38,0,17.07q.28,46.62.59,93.23c.06,10.1-9.87,15.74-19,10.67-3.1-1.73-5.82-5.72-8.75-5.74C497.81,542.32,495,546.17,492.28,548.32Z"/><path class="cls-1" d="M302.83,197c.21,0,.3-.09.3-.18.65-1.74.79-4,2-5.13,6.88-6.26,13.5-13,21.27-18,4-2.57,10.25-2.21,15.51-2.36,17.63-.51,17.63-.37,23.73,15.82.86,2.29,1.76,4.56,2.63,6.81L361.47,184c-3.35,2.91-6.46,4.75-8.28,7.46-1.33,2-1.77,7.21-1.23,7.42a87.3,87.3,0,0,0,15.62,4.24c.47.09,1.62-3.47,2.45-5.33,3.2,1.65,6.32,4.5,9.62,4.72,9.37.65,18.83.23,28.15.23l-7.55,9.92a19,19,0,0,0-4.93-1.9c-4.31-.65-10.18,2.67-11.51-5.11-.08-.47-3.57-.79-5.29-.4-1.08.24-2.78,2.53-2.56,2.91,1.23,2,3,3.8,5.6,6.89-2.79,1.22-5.53,3.38-8.35,3.49-9.77.39-19.57.14-29.36,0-5.61-.1-6.52-3.36-3.77-8.46-9-1.34-8.57,14-19.44,7.88L337.4,201.8c-7-3.79-13.92,6-19.73-1.59C311.07,208.8,307.55,199.84,302.83,197Z"/><path class="cls-1" d="M641.92,501.8c6.35,5.95,13.7,12.72,20.87,19.68a6.79,6.79,0,0,1,1.8,4.4c.11,26.86.08,53.72.08,81.38H641.25c6.79-4.31,7.34-17.75,1.92-24,1.49-3.16,4.14-6.11,4-8.92-1.14-23.17-2.76-46.31-4.33-69.45A9,9,0,0,0,641.92,501.8Z"/><path class="cls-1" d="M648.67,449.09c10.39.53,19.43.76,28.4,1.68,1.64.17,4.22,3.15,4.26,4.88q.42,20.89-.21,41.81c0,1.6-3,4.43-4.66,4.45A197.6,197.6,0,0,1,653,500.72c-1.59-.17-4.12-2.85-4.15-4.42C648.54,481,648.67,465.59,648.67,449.09Z"/><path class="cls-1" d="M716.23,158.94l-23.82,11.83c2.2-12.16-3.28-12.59-10.59-12.64-59.05-.38-118.09-1.1-177.14-1.74-12.79-.14-12.79-.18-13.63,13.25-11.27,0-22.65.35-34-.42-1.54-.1-2.7-5.85-4.27-9.54L441,161c-.45,2.54-.9,5.1-1.37,7.73H404.78c24.41-9.26,47.38-15.56,72-15.14,66.63,1.15,133.27,2,199.9,2.83,12.92.17,25.85,0,38.77,0C715.69,157.28,716,158.11,716.23,158.94Z"/><path class="cls-1" d="M609.79,593.86v-13c-.12.11.18-.36.59-.5,2.61-.85,5.25-1.64,7.87-2.44-2-2.18-4.31-4.16-6-6.57-1.82-2.64-4.22-5.62-4.37-8.55-1-18.24-1.45-36.51-1.9-54.78-.23-9.4,0-18.81,0-30,10,23.75,17.09,46.33,16.79,70.76-.18,14.41.36,28.83.34,43.24,0,2.21-1.22,4.43-1.88,6.64-1.92-.9-3.81-1.85-5.76-2.67S611.5,594.5,609.79,593.86Z"/><path class="cls-1" d="M507.06,174.19c-1.75,9-2.89,16.22-4.73,23.26-.44,1.66-3.23,3.81-5,3.84-15.36.31-30.73.18-47.41.18,2-9.41,3.44-17,5.31-24.45.29-1.18,2.41-2.7,3.7-2.71C474.56,174.12,490.16,174.19,507.06,174.19Z"/><path class="cls-1" d="M376.31,589.17l-7.56,1c.3,6.34.6,12.68.91,19.21-.65-1.92-1.79-3.92-1.93-6-.42-6.13-.33-11.57-8-14.7-2.4-1-2.31-9.21-2.34-14.12,0-1.71,3.24-3.29,4.66-5.19s3.83-4.44,3.75-6.61c-1.69-44.74-3.65-89.46-5.59-134.19-1-22.72-1.92-45.45-3.15-68.16-.32-5.93.85-12.37-7.88-15.24-2.46-.81-2.92-9.53-3-14.65,0-1.7,4.2-3.24,6-5.29,1.52-1.73,3.13-4,3.25-6.18.26-4.46-.43-9-.73-13.47l2.43-.15c0,4,0,7.92,0,11.87-.07,5.76-.33,11.61,8.91,9.51v17.94L359,346.31c0,7.71-.27,15.25,0,22.77q4.07,97.59,8.29,195.18c.17,4.09.07,8,6,7.83,1,0,2.69,2.56,2.84,4.06C376.57,580.24,376.31,584.38,376.31,589.17Z"/><path class="cls-1" d="M532.91,205.92c-2.4,1.68-4.12,2.31-4.91,3.54-1.8,2.83-3,8.41-4.69,8.48-5.5.25-13.31.53-16.23-2.76-8.8-9.89-19.41-8.17-30.27-7.22l15.79,2.75c-.38,1.74-1,4.66-1.51,6.82-3.11,0-5.66-.63-7.71.12-6.72,2.45-12.08-.17-15.12-5.41-3.94-6.8-6.88-5.2-10.8-.59-1.57,1.86-3.42,3.47-5.56,5.6l-4-3.3v2c-4.58.55-10,2.86-13.51,1.17-3.66-1.77-5.47-7.38-8.15-11.4-11.79,12.71-13.25,9.78-6.76,15h-7.6l5-17Z"/><path class="cls-1" d="M599.05,184.9c4-8.49,10.23-10.81,19-10.58,37.19,1,74.39,1.17,111.59,1.6,13.21.15,15.78,3.66,11.41,16.06-.88,2.51-2,5-2.68,6.71-2.38-3.17-5-6.61-7.58-10.06l-1.69.93v11.73c-11.38,2.23-11.7,2.07-16.86-9l-3.91,2.37c-3.69-4.24,4.34-11,13.2-11.53a29.28,29.28,0,0,1,3.36.21c.21-.77.43-1.55.64-2.33-3.54-1.24-7.05-3.48-10.61-3.57-18.6-.45-37.21-.26-55.81-.49-12.21-.14-24.43-.36-36.63-1C613.37,175.43,604.86,175.94,599.05,184.9Z"/><path class="cls-1" d="M684.74,632.17q1.2-156.9,2.38-313.8l1.61-.07c0,2.42,0,4.84,0,7.26-.1,39.47-.11,78.93-.34,118.4q-.5,88.21-1.33,176.45c0,4-1.25,8.06-1.92,12.08Z"/><path class="cls-1" d="M582.38,184.85c-.79,13.44-.81,13.4-11.71,13.24-8-.12-16,0-23.92,0-.52-12.45.31-13.3,11.23-13.22C566,184.9,573.92,184.85,582.38,184.85Z"/><path class="cls-1" d="M507.9,197.22c1.81-13.53,1.81-13.45,13.19-13.2,7.51.17,15,0,22.42,0,1,11.95-.24,13.35-10.26,13.2C525,197.12,516.76,197.22,507.9,197.22Zm30.09-3-4.74-4.4,6.23-.41c-9.79-4.42-11.9-3.56-14,4.81Z"/><path class="cls-1" d="M522.33,152.31c-21.56,0-43.35-2-64.61.56-20.89,2.5-41.24,9.58-63.85,15.15C421.56,152.74,498.89,143.13,522.33,152.31Z"/><path class="cls-1" d="M635.57,263.82l-187.78-5.11,0-1.19,187.78,4.82Z"/><path class="cls-1" d="M656,152.55H527.12v-1.24H656.06Z"/><path class="cls-1" d="M610.81,186.12c5,6.7,1.76,19.45-5.44,22.33-7,2.78-13-1.7-12.31-9.21.31-3.36.81-6.7,1.25-10.27,3.79-.9,7.68-1.94,11.63-2.64.45-.07,1.23,1.77,1.91,2.82l-12.06,3.74c.07,1,.15,1.93.22,2.89l10.59,1.85.58,1.82-12.47,3.6c2.95,1.71,5.31,4.07,6.48,3.58,2.85-1.18,6.43-3.21,7.39-5.77C610.23,196.48,610.11,191.43,610.81,186.12Z"/><path class="cls-1" d="M702.31,470.91c2.48.79,5.64.92,7.26,2.56s3.25,5.41,2.54,7.4c-.58,1.63-4.53,2.63-7.07,2.83a14.09,14.09,0,0,1-7-1.87c-2.24-1.14-4.1-3-6.13-4.58,2.42-1.9,4.77-3.9,7.31-5.62.66-.46,1.89-.07,2.86-.07Z"/><path class="cls-1" d="M655,220.94h44.92C693.89,225.64,662.5,225.31,655,220.94Z"/><path class="cls-1" d="M660.59,152.62H722c0,.49,0,1,0,1.47H660.53Z"/><path class="cls-1" d="M473.66,145.66H451.91c2.93-2.63,4.5-5.16,5.83-5C462.65,141.08,468.78,137.73,473.66,145.66Z"/><path class="cls-1" d="M620.31,215.07l12.41,3.47c1,4.5,1,4.5-19,3.5,3-3,4.88-4.88,6.79-6.81Z"/><path class="cls-1" d="M737.73,148.87H719.94l-1.1-1.87c2.07-1.31,4.23-3.81,6.2-3.67C729.23,143.64,735.42,140.27,737.73,148.87Z"/><path class="cls-1" d="M516,595.83l23.64,2.77C532.89,602.8,519.21,601.72,516,595.83Z"/><path class="cls-1" d="M436.39,257.74c-7.8,0-15.63.45-23.39-.12s-13.95.92-18.24,7.77a6.86,6.86,0,0,1-3.63,3.31c4.22-6.54,8.09-13.15,18-12.26,9,.8,18.06.17,27.09.17Z"/><path class="cls-1" d="M637.79,453.64v29h-1V453.81Z"/><path class="cls-1" d="M638.72,223.34c4.69-6.88,5.15-6.81,13.08,2.1Z"/><path class="cls-1" d="M437.83,598.89h16.51l0,2.48H438Z"/><path class="cls-1" d="M599.41,602.73H623c0,.62,0,1.23,0,1.85l-23.51-1.44Z"/><path class="cls-1" d="M684,312.93l-17.9-18.84,19.42,17.49Z"/><path class="cls-1" d="M587.38,668.9l-26.69-2.1.08-1.14,27.34,2.12C587.87,668.16,587.62,668.53,587.38,668.9Z"/></svg>