<svg id="Layer_1" data-name="Layer 1" xmlns="http://www.w3.org/2000/svg" viewBox="0 0 744 702"><defs><style>.cls-1{fill:#b3b3b3;}</style></defs><title>projet-2500-wax_1</title><path class="cls-1" d="M516.34,703.3c3.36-5.18,6.7-10.39,10.1-15.55,1.82-2.79,3.78-5.48,5.62-8.26,2.7-4,5.34-8.15,8.05-12.2.52-.77,1.45-1.28,1.91-2.08,7.14-12.19,14.72-24.15,21.19-36.69,6.84-13.25,12.41-27.14,18.92-40.56,4.33-8.92,9.34-17.51,14.91-27.84.88,5.12,1.51,8.76,2.14,12.39l1.49,0a35.94,35.94,0,0,0,.53-4.37q.13-94.95.27-189.9c0-4.78-1.45-6.71-6.52-6.72Q423.82,371,252.69,370c-4.75,0-6.11,1.46-6.1,6.13q.34,148.68.47,297.35c0,12.21,6.44,19,18.5,19.86q62.35,4.46,124.72,8.8a41.13,41.13,0,0,1,5.51,1.13H353.71C340,702.18,326.2,701,312.43,700c-16.24-1.19-32.5-2-48.73-3.31-12.21-1-19.52-9-19.76-21.4-.14-7.39-.21-14.79,0-22.17.1-3.83-.69-6.4-5.83-6.2,6.31.4,5.92-3.35,5.92-7.26q-.13-135-.16-270c0-63.85-.29-127.7,0-191.55,0-8,1.79-16.13,4.07-23.81,1.85-6.24,6.39-9.42,14.1-9.68,54.29-1.83,108.57-4.28,162.85-6.59q65.25-2.77,130.48-5.68,87.65-3.93,175.28-8c4.52-.21,9-.57,14.18-.9,0,5.12,0,9.81,0,14.51q0,78.74,0,157.47c0,24.25-.19,48.5,0,72.75,0,3.45-1.31,4.36-4.19,4.42-2.27,0-4.54.08-6.82.06q-59.68-.47-119.37-.94c-8-.06-8.07,0-8.07,8.18q.12,157.18.24,314.38c0,3-.2,6-.3,9.07ZM246,306.16c0,18.32.22,35.73-.12,53.13-.11,5.6,1.78,7,7.13,7q186.77.35,373.53.95c1.77,0,3.55-.17,5.32-.27-1.41-1.07-2.86-1.15-4.26-1.45-3.56-.77-7.1-1.65-10.65-2.48,1.56-3.51,2.77-7.22,4.74-10.47,7.48-12.35,12.86-25.22,11.63-40.08-.61-7.32.12-8.09,7.69-8.19,6.92-.09,13.85,0,20.78,0l0-1.59Z"/><path class="cls-1" d="M607.32,703.3q.13-79.57.22-159.17c0-9.55,1.12-18.47,4.87-27.59,6.81-16.54,12.21-33.69,17.83-50.71,3.84-11.64,6.81-23.56,10.58-35.23,4.16-12.91,8.91-25.63,13.12-38.52,1.34-4.1,1.77-8.49,2.63-12.74.79-3.91,3-5.68,7.17-5.68,24.82,0,49.65,0,74.47-.26,6.34-.06,6.25,3.68,6.25,8.2q0,156.9,0,313.8c0,2.64.29,5.27.44,7.9Z"/></svg>