<svg id="Layer_1" data-name="Layer 1" xmlns="http://www.w3.org/2000/svg" viewBox="0 0 744 702"><defs><style>.cls-1{fill:#b3b3b3;}</style></defs><title>projet-7000_1</title><path class="cls-1" d="M330.52,496.5l58.87,3.86c12.14.79,24.26,1.79,36.41,2.36,17.87.84,35.77,1.42,53.65,2,3.16.1,6.33-.39,10.62-.68-2.78-4.45-6.43-4.35-9.72-4.56-26.8-1.65-53.62-3-80.42-4.85-30.36-2.06-60.7-4.46-91.05-6.79a33.6,33.6,0,0,1-5.87-1.46c-2.72-9.15-7.83-224.76-5.52-238.64,4.46-.33,9.27-.94,14.1-1q82.2-1.11,164.4-2.13c4.35-.06,9.22.9,13.67-3.86-2.44-1.52-4-3.13-5.66-3.39a67.14,67.14,0,0,0-10.72-.42q-79,.82-157.94,1.72c-4.21,0-8.42,0-12.63,0l-.39-2.66c2.37-.5,4.74-1.39,7.13-1.43,14.32-.24,28.65-.3,43-.38,25.44-.12,50.88,0,76.31-.41,17.54-.28,35.06-1.28,52.59-2.06a43.58,43.58,0,0,0,6.32-1.22c.51-1.67,1.31-3,1.27-4.31-.47-13.93-1.06-27.86-1.63-41.79a44.19,44.19,0,0,0-.41-6.42c-1.1-6-3.32-7.52-9.64-7.47q-83.26.69-166.52,1.25a64.51,64.51,0,0,1-7.79-.89c0-.79-.05-1.59-.07-2.38,4.36-.43,8.73-1.24,13.09-1.22,32.6.1,65.22,1.2,97.8.37,38.65-1,77.25-3.54,115.88-5.47,14.66-.73,29.31-1.78,44-2.37,14.33-.57,16.34,1.37,16.34,15.64,0,55.52,0,111.05-.23,166.58-.28,62-1,123.94-1.21,185.91-.06,23.25,1.41,46.51,1.33,69.76-.11,35.81-1,71.61-1.49,107.42H476.55c1.32-20.67,2.94-41.32,3.85-62,.7-16,.3-32.11.79-48.15.31-10.34,1.41-20.66,2-31,.71-11.76,1.39-23.53,1.89-35.3.24-5.69,0-11.39,0-18.33-3.1-.76-6.74-2.2-10.47-2.48q-49.2-3.62-98.42-6.89c-12.84-.88-25.7-1.54-38.53-2.52-2.37-.19-4.66-1.43-7-2.18Zm75.56-247.73c0,5.86-1.77,11.35,3.71,14.28,5.1,2.74,10.48.7,15.29-1.62s7.71-6,6.82-12.28C423.55,246,415.43,246.4,406.08,248.77Zm179.67-75.22h-1.13v55h1.13ZM545.27,488.49c.75-2,1.59-3.13,1.33-3.85a4.57,4.57,0,0,0-2.45-2.32c-.43-.17-2.12,1.24-2,1.56C542.44,484.91,543.32,485.77,545.27,488.49Zm4.67,34.41c-.72,1.07-1.74,1.93-1.63,2.62s1.22,1.48,1.9,2.21a12.43,12.43,0,0,0,2.07-2.8C552.39,524.65,551,523.76,549.94,522.9Z"/><path class="cls-1" d="M594.8,705.1c-.45-66.62-1.53-133.23-1.14-199.84.25-41.88,2.25-83.77,4.29-125.61,2.31-47.53,5.25-95,8.51-142.52,1.79-26.06,4.72-52,7.26-78,1.22-12.48-4.35-19-17.13-18.81-17.54.28-35.09.86-52.62,1.6-25.39,1.06-50.77,2.43-76.16,3.55-16.45.73-32.91,1.3-49.38,1.83-5.61.18-11.23,0-17.27,0,.55-8.81,4.62-14,11.78-16a88.33,88.33,0,0,1,20-3.5c33.27-1.32,66.57-2.1,99.86-3.26,36.13-1.26,72.26-2.7,108.39-4.12,12.52-.48,25-1.38,37.55-1.63,17.06-.33,22.4,4.84,21.34,21.49-1.28,20-3.33,39.92-5,59.88-1.9,22.1-4,44.18-5.68,66.3-2.23,29.61-4.22,59.23-6.13,88.86-1,15.71-1.85,31.44-2.39,47.17-1,29-2.09,57.95-2.45,86.94-.78,62.3-1.13,124.6-1.64,186.9,0,3.9,0,7.81,1.46,11.79q.5-6.51,1-13l.34,0q.67,15,1.33,30Zm36.11-268.34c-2.44,6.28-5,10.61-5.77,15.23-3.18,20.35-5.85,40.79-8.63,61.2a24.53,24.53,0,0,0,.16,5.34c.59,6.74,1.25,13.48,1.85,20.22.42,4.61.6,9.33,6.77,12.74,2-2.58,4.89-4.88,5.66-7.76,3.57-13.33,6.57-26.82,9.66-40.28a21.36,21.36,0,0,0,.14-5.31c-.24-7.84-1.29-15.75-.62-23.52C641.24,461.68,636.76,450.41,630.91,436.76ZM618.82,267.4l-3.5-.15c-1.06,22-4.13,43.95-1.65,66.19Q616.24,300.43,618.82,267.4Zm11.6,97.15a12.13,12.13,0,0,0-2.4-2c-.27-.12-1.39.74-1.35,1a8.94,8.94,0,0,0,1,2.31C628.45,365.54,629.2,365.16,630.42,364.55Zm23.24,2.35a12.35,12.35,0,0,0,1.86-2.58c.12-.35-.77-1.48-1-1.42-.82.18-2,.6-2.21,1.18S653,365.61,653.66,366.9Zm-13.35-1.38a11.56,11.56,0,0,0,1.4-1.19c.08-.09-.29-.84-.43-.83a9.37,9.37,0,0,0-1.72.35Z"/><path class="cls-1" d="M306.87,494.38l23.65,2.12.22-.24c-7.94-.19-16.08,2-23.67-2.1Z"/><path class="cls-1" d="M689.1,403c-.06,1.17-.12,2.33-.19,3.5l-1.32,0v-3.5Z"/><path class="cls-1" d="M307.07,494.16l-1.53-.3,1.33.52Z"/></svg>