<svg id="Layer_1" data-name="Layer 1" xmlns="http://www.w3.org/2000/svg" viewBox="0 0 744 702"><defs><style>.cls-1{fill:#b3b3b3;}</style></defs><title>projet-3600_1</title><path class="cls-1" d="M321.32,702.57c0-5,0-9.06,0-13.1q-2.94-264.12-5.9-528.23c-.12-10.75-.36-21.51-.23-32.26.17-13.29,4.83-18,18.1-18.4q113.06-3.42,226.1-6.72,28.41-.83,56.81-1.49c16.69-.38,21.73,3.95,21.77,20.39q.43,154.78.45,309.58,0,128.73-.23,257.44v12.79ZM607.18,165.12c.94-7.89,1.44-14.86,2.64-21.71,4.15-23.66-7.73-37-31.66-36.3-77.62,2.36-155.24,4.44-232.86,6.64a103.7,103.7,0,0,0-12.23.59c-10.46,1.54-14.91,7.17-14.35,17.57.41,7.41,1,14.82,1.17,22.23.37,16.13.28,16.24,16.21,16.05q112-1.27,224.08-2.74C576.06,167.22,591.93,165.9,607.18,165.12ZM460.83,428.51c-10.64-.59-21.48.4-31.38-2.19-10.83-2.82-11.44.82-9.7,9.22,11.28,1,22.14,1.93,33,2.84C459,438.9,462.54,436.74,460.83,428.51Zm39.16-.62c-1.39,8.55,2.13,12.56,10.54,12.46,4.4-.06,9,.65,13.15-.39,2.86-.72,5.11-3.86,7.64-5.92-2.46-2.05-4.75-5.59-7.4-5.87C516.36,427.37,508.65,427.89,500,427.89Zm-31.26-1.18c-3.67,7.69-1.25,10.65,5.61,11.39,7.4.81,15,2.35,19-6.21.4-.84-4.34-5.3-4.7-5.07C482,431.21,475.44,426.08,468.73,426.71Z"/><path class="cls-1" d="M704.82,197.77c-.6,4.32-1,7.09-1.37,9.85l-2.68,1.78-10.28-11.63Z"/><path class="cls-1" d="M656.92,143.13c-.31,0-.63,0-.93,0,0,0,0-.34-.08-.52a5.74,5.74,0,0,1,.93.05C656.9,142.64,656.89,143,656.92,143.13Z"/><path class="cls-1" d="M668.87,145.18c.19-.13.38-.37.57-.38a4,4,0,0,1,.94.19c-.19.14-.38.37-.58.38A3.15,3.15,0,0,1,668.87,145.18Z"/><path class="cls-1" d="M471.19,152l.75.61a18.24,18.24,0,0,1-1.5,1.29c-.05,0-.45-.4-.69-.62Z"/><path class="cls-1" d="M525.93,434.12c.11.25.33.52.3.75s-.31.4-.49.6C525.81,435,525.87,434.57,525.93,434.12Z"/></svg>