<svg id="Layer_1" data-name="Layer 1" xmlns="http://www.w3.org/2000/svg" viewBox="0 0 744 702"><defs><style>.cls-1{fill:#b3b3b3;}</style></defs><title>projet-2500-plus_1</title><path class="cls-1" d="M745.58,129.68v19.56q-.3,268.52-.35,537c0,12.52-3.12,16.72-16.2,16.59-69.9-.68-139.82-.42-209.73-.56-4.91,0-9.81-.55-17-1,2.26-5,3.24-8.51,5.19-11.34,10.46-15.21,22-29.76,31.56-45.5a496.48,496.48,0,0,0,28.42-53.29C578,567.88,587.3,544,596,519.94c3.79-10.42,6.55-21.78,6.88-32.8.94-31.14-.06-62.34.65-93.5.27-12.31-4.37-16.12-16.21-16.17q-159.84-.68-319.69-2.24c-10.71-.1-14.91,2.7-14.83,14.12.6,93.93.64,187.87,1,281.8.07,17.88,4.91,22.33,25,23.73,31,2.17,62,4.13,92.87,9.16-35-2.07-70-3.65-105-6.48-12.36-1-17.63-10.6-17.69-22.48-.07-16.83.48-33.66.47-50.48q-.26-219.25-.56-438.49a88.88,88.88,0,0,1,1.23-16.31c2.93-15.69,6.63-18.54,22.68-19.2q163.5-6.78,327-13.69C647.8,134.83,695.69,132.17,745.58,129.68ZM441,309.57v2c-57.64,0-115.29.17-172.94-.16-11.26-.06-16.38,3.8-15.58,15.4.58,8.38.08,16.83.2,25.24.24,16.47.91,17.23,17,17.29q92.16.38,184.32.57,72,0,143.92-.62c4.9-.05,12.62-1.61,14.14-4.79,5.72-12,10.65-24.74,13.57-37.72,3.76-16.67,2.68-17.19-14.23-17.21Q526.2,309.48,441,309.57ZM610.34,537.16l2.85.14c.45-9.44,1.6-18.91,1.21-28.32-.89-21.69,1.26-42.81,8.66-63.33q7.07-19.57,13.49-39.37c3.65-11.31,4.52-24.47,21.28-26.57-13.34-1.61-25.55-2.39-37.54-1.13-3.63.38-9.48,6.41-9.52,9.91C610.14,438,610.34,487.6,610.34,537.16Z"/></svg>