<svg id="Layer_1" data-name="Layer 1" xmlns="http://www.w3.org/2000/svg" viewBox="0 0 744 702"><defs><style>.cls-1{fill:#b3b3b3;}</style></defs><title>projet-660-pro_1</title><path class="cls-1" d="M300.38,645.89c-14.52-1.62-29-3.36-43.57-4.64-1.42-.13-3.95,2.33-4.48,4-1.58,5.08-2.37,10.4-3.57,15.61-1.45,6.3-5,10-11.93,8.85-6.72-1.1-11-5.23-10.77-11.88.24-6.13,2.31-12.18,3.79-19.32-7.21-.88-15.78-2.41-24.4-2.82-7.54-.37-11.16-3.57-11.72-11-.32-4.19-1.41-8.31-2.4-13.82,4.28.46,7.61.49,10.79,1.21,60.29,13.66,121.06,24.38,182.62,30.44,1.06.1,2.12.25,3.19.35,13.07,1.23,14.12-.09,13.51-13.37-2.06-44.58-4.06-89.17-5.69-133.77-.59-16.27-.09-32.58-1-48.89.66,12.43,1.36,24.87,2,37.31q3.64,72.48,7.24,144.94c.73,14.67,1.2,14.86,15.62,16A1195,1195,0,0,0,567,648.06c14.76-.65,17-3.9,14.35-18.29-9.26-49.92-18.09-99.91-27.11-149.87-2.27-12.62-5.15-25.17-6.79-37.88q-4.34-33.7-7.37-67.57c-1-10.66-1-11.64-11.74-13.13-17.12-2.37-34.27-4.47-52.55-6.82.62,4.76,1.11,8.08,1.46,11.41,1.63,15.44-3.93,25.93-18.74,30.4-13.2,4-27.08,5.78-40.74,8.11a70.22,70.22,0,0,1-15.21.54c-7.14-.35-9.55,2.91-9,9.66a49.15,49.15,0,0,1-.83,13.55c0-4.23-.26-8.48.05-12.68.56-7.29-2.43-9.94-9.84-11.21-16.51-2.82-32.9-6.63-49.07-11-5.47-1.49-10.11-6-15.13-9.15l1.15-2,4.67,1.36c-.59-5.85-1.1-11.42-1.74-17-.26-2.22-.35-6-1.33-6.28-2.23-.67-5,.4-7.84.81a6.55,6.55,0,0,1-.35-2.48c1.28-6.94-1.82-9-8.4-8.44-28.48,2.47-57,4.72-85.48,7.08-4.45.36-8.88.9-13.51-.53,9.39-1.09,18.74-2.48,28.15-3.22,25.32-2,50.64-3.9,76-5.38,6.43-.38,10.08-2.49,12.64-8.6a147.53,147.53,0,0,1,32-47.64c22.33-22.28,54.19-23.21,75.53.12,13.89,15.19,24.68,33.37,35.78,50.9,3.7,5.84,7,9,13.94,9.57,20.51,1.62,41,3.8,61.46,5.88,4.39.45,7.7-.6,8.11-5.38,1.45-17,10.86-29.75,21.55-42a86.21,86.21,0,0,0,11.47-16.37c5-9.48,1.11-17.44-9.47-18.52-44.65-4.58-89.29-9.59-134.06-12.66-70.63-4.83-141-.14-211.31,7.45a71.68,71.68,0,0,1-9.14.05c-1.74-4.42-3.26-7.76-4.34-11.24a19.59,19.59,0,0,1-1-7c.54-7.19.69-14.54,2.42-21.47,1.42-5.66,4.88-10.8,7.47-16.15,1.84-3.8,4.2-7.42,5.56-11.39,8.17-23.75,16-47.61,24.22-71.34,2.4-6.91,5.81-13.47,7.4-21.39-2.49,2.38-5.37,4.48-7.39,7.22-5.24,7.07-10.13,14.41-15.12,21.68-3.52,5.13-19.26,7-23,2.4-1-1.2-.9-4.28,0-5.71,5.7-9.32,11.39-18.7,17.93-27.43,1.8-2.41,6.45-3.66,9.83-3.74q84.2-1.92,168.39-3.35,148.73-2.72,297.47-5.36c9.35-.17,18.7-.58,28-1,5.8-.28,8.41,2.45,8.39,8.09-.1,23.25-.06,46.51-.49,69.77,0,2.09-3.11,6-4.65,5.92-14-.56-27.9-1.81-39.92-2.71-.93-6.38-2.13-10.4-1.94-14.36a44.44,44.44,0,0,1,2.69-13.13c3.88-10.48,8.27-20.77,12.43-31.15,1.94-4.81,3.83-9.64,5.74-14.47l-1.48-1.5c-1.81,1.92-4.23,3.54-5.3,5.81-3.2,6.75-6.1,13.67-8.67,20.69-1.87,5.15-5,7.89-10.53,8.16-5.87.28-11.71,1.42-17.56,1.44-6.75,0-10.55,2.91-11.75,9.46-4.64,25.2-10.2,50.26-13.66,75.62-2.8,20.55-3.08,41.44-4.48,62.18l2.57.13c0-6.77-.06-13.54,0-20.3.08-7.33,3.62-11.2,10.8-13.81,9.42-3.42,18.32-8.44,27.05-13.45,2.27-1.3,3.95-5,4.43-7.8,1.56-9.21,2.45-18.53,3.58-27.81.82-6.69,4.56-10.23,11.31-9.74,11.72.85,23.42,2.06,35.13,3,5.67.47,4.85,4.58,4.85,8.27,0,30.48.06,60.95,0,91.43-.08,35.28-.35,70.56-.4,105.85-.08,55.34.2,110.68-.24,166-.11,13.15-2.35,26.3-3.82,39.42s-4.55,26.52,3.35,39c.77,1.22.69,3.1.7,4.68.12,15,.06,29.94.32,44.91.08,4.91-1.17,7.3-6.71,7.27-42-.23-84,.76-125.89-.67-22.86-.78-45.53-6.1-68.38-8.41-71.81-7.26-143.67-14-215.49-21.09-13-1.29-26-3.16-38.95-5.16-2.59-.4-4.91-2.6-7.36-4,1.81-2.39,3.19-5.38,5.51-7.05,4.05-2.91,8.67-5,13.05-7.45C300.59,647.68,300.48,646.78,300.38,645.89ZM326.92,194q-38.75-2.91-77.5-5.81c-4.52-.33-7.89,1.07-8.84,6.05q-6.08,31.9-12.19,63.79c-.84,4.44.47,6.82,5.48,5.84,11.28-2.21,22.59-4.25,33.83-6.66,1.73-.37,4.59-2.56,4.45-3.55-1.3-9.09,5-7.72,10.17-7.69q55.32.39,110.63.93c1.71,0,3.41.34,5,.51-4.56,3.3-8.92,6.47-13.28,9.64l1.3,2.48c7.9,1.33,16.12,3.54,23.23-2.14,1.73-1.39.81-6.08,1.22-10.34,1.25,0,4.13-.05,7,0,22.44.51,44.88,1.3,67.33,1.51q55.32.48,110.65.25c7.44,0,9.56,2.52,8,9.48-1.43,6.5-2.38,13.11-3.54,19.67,5.16-6.61,6.85-15.7,16.25-19.23,8.07-3,15.48-7.81,24-12.22v88.67c.89-3.37.76-6.75.91-10.12,1.46-33.61,1.87-67.32,4.84-100.8,2.19-24.65,7.58-49,11.89-73.49,1.7-9.65.59-11.44-9.37-10.81-4.53.28-9,1.13-13.55,1.38-5.25.28-8.47,2.76-9.8,7.8-2.6,9.82-5.57,19.55-7.74,29.45-3.73,17-7,34.16-10.66,52.43a14,14,0,0,1-.57-2.8c.6-4.5,1.26-9,1.9-13.49,1.29-9,.21-10.13-9-10.44q-24-.78-47.94-1.9c-56.84-2.63-113.68-5.39-170.54-7.78-3.79-.16-7.64,2.68-11.59,3.56-3.33.74-8.26,2.26-10,.68-9.94-8.76-20.91-6.84-32.14-4.65Zm83.17,149.65v1.3c9.05,0,18.11.27,27.13-.2,2-.11,5.63-2.76,5.64-4.25,0-10.18-11.75-21.91-22.1-22.49-6.64-.37-13.3-.39-20-.48-13.59-.17-19.53,4.29-23.84,17.41-1.91,5.8-.3,8.74,6,8.72Q396.52,343.6,410.09,343.62Zm-81.45,24.53c16.08,8.18,31.91,13.59,49.55,12.35,5.24-.37,10.67,1.65,15.88,1.16,15.7-1.47,33.37,9.63,46.8-7.05.56-.7,1.86-.81,2.75-1.16Zm87.93-59.6c-2-2.48-3.15-5.31-4.53-5.42a45.81,45.81,0,0,0-12.29.86c-5.28,1-10.38,3.46-15.68,3.93-7.42.65-14.95-.19-22.42.06-5.57.18-11.11,1.07-16.66,1.64,11.76,7.08,90.31,8.45,100,1.84ZM646.52,640h.57V486.64h-.57ZM361.08,398.34c25.65,5,52.85,6.06,78.34,0ZM506,105.45v-.63H437.56v.63ZM419.2,107l-.38-.48H354.43V107ZM526,103.18l.22.51h54.67l0-.51ZM363.06,192.37c2.18-3.54,4.05-5.29,4.09-7.08,0-1.33-2.32-2.71-3.61-4.07-1.27,1.45-3.28,2.76-3.58,4.38C359.7,187.05,361.34,188.84,363.06,192.37Zm60.7,157.18.14,1.24,17.16,1.51c.07-.92.15-1.83.22-2.75Z"/><path class="cls-1" d="M374.94,421.73a20,20,0,0,1-1.51,3.65c-9.86,14.17-9.26,28.81,1.21,42.43,2.83,3.69,4.34,8.39,6.87,13.45-13.71-.19-22.05-13.11-23.48-33.2C357.14,435.62,364.73,423.38,374.94,421.73Z"/><path class="cls-1" d="M326.71,194.18l10.78,1.68,0,3.11c-2.7.46-5.61,1.72-8,1.06-1.32-.36-1.76-3.93-2.59-6.05Z"/></svg>