<svg id="Layer_1" data-name="Layer 1" xmlns="http://www.w3.org/2000/svg" viewBox="0 0 744 702"><defs><style>.cls-1{fill:#b3b3b3;}</style></defs><title>sinterit-lisa_1</title><path class="cls-1" d="M745.29,389.59V703.37H312.55c-4.36-7.79-6-16.38-6.35-25.1-.85-23.54-1.4-47.1-1.89-70.66-.7-33.55-1.26-67.09-1.86-100.64q-1.65-93.17-3.23-186.32c-.18-10.91-.13-21.85.46-32.74.5-9.22,3.58-17.43,12.59-22a18.84,18.84,0,0,0,2.7-2.26c-5.8,1-5.8,1-13.93,10.29a95,95,0,0,1-.92-28.56c.9-7.18,3.51-13,9.73-17.23a195.18,195.18,0,0,0,15.86-12.24q38.9-32.64,77.63-65.47c15.3-13,30.35-26.33,45.53-39.48,3.27-2.84,9.83-3.51,12.45-.7a112.86,112.86,0,0,1,11.42,14.2c2,3,3.57,4.25,7.33,3.9q67.35-6.2,134.75-12c32.79-2.87,65.61-5.55,98.39-8.56,3.85-.35,5.15.85,6.11,4.22,4.46,15.56,9.16,31,13.63,46.58.49,1.73.06,3.73.06,5.69-3.57.42-6.45.83-9.35,1.1-10.38,1-20.78,1.75-31.15,2.84-14.21,1.49-28.39,3.3-42.6,4.79-11.1,1.16-22.23,2-33.32,3.08-13.43,1.34-26.84,2.82-40.26,4.25a27.25,27.25,0,0,0-16.25,7.06c2.81,0,4.51.14,6.19,0,20.86-2,41.71-4.06,62.56-6.06,11.06-1.06,22.42-.65,32.28-7.2.71-.47,2.63-.46,2.89,0,.57,1,.45,2.36.68,4.07,6.79-.64,13.9-1.54,21-1.91,3.87-.2,6.29-.76,4.43-5.34l1.26-.46c.35,1.91.69,3.75,1.12,6.14-10.93,1.52-21.5,3.27-32.15,4.42-19.86,2.13-39.77,3.86-59.65,5.86-9.7,1-19.43,1.89-29.06,3.43-6.15,1-12.08,3.24-18.2,4.52-1.61.34-3.54-.81-5.33-1.28-2.1-.58-4.36,0-6.66.2-8.48.87-17,1.51-25.45,2.53-2.54.31-5.36,2.84-7.33,2.18-4.23-1.41-4.93,1.24-7.22,4.36h36.19c-9.58,1.38-19.21,2.88-28.82,2.84-5.57,0-10.18.8-14.65,4.65,3.75,15.07,7.52,30.36,11.39,45.61.53,2.1.94,3.52-1.39,5.09-13.87,9.28-27.61,18.78-41.36,28.23-5.84,4-11.62,8.11-18,12.58l139.06-17.12c-34.13-.53-68.21-4.29-103.59.47,2.26-1.84,3.38-2.88,4.63-3.74,8.35-5.76,16.89-11.25,25-17.29,4.87-3.62,10.15-5.05,16-5.66q52.13-5.44,104.23-11.08c9.73-1,19.46-2,30-3.12l-60.71,39.84.48,1.39,6.42-.52.36.81L543.6,325l.26,1.85L679.2,376.43l-.33.92-120.59-43-.39,1,9.68,4.11-.28.79L547,333.73l-.22.67,20,8.26c-5.54,3.38-9.44,6.58-13.91,8.24-4.14,1.54-8.88,1.55-13.38,2-4,.41-8,.3-8.59-5.4l-7.56,3.71,2,2.3-3.58,1.16-1.58-4c-.69,1.56-1,3.67-1.81,3.89-2.22.6-4.66.4-6.73.5.6,6,1.53,12,1.67,18.08.08,3.41,1.23,4.92,4.31,6.09,18.67,7.1,37.27,14.38,55.88,21.62,1.44.56,2.81,1.29,4.22,1.94l-.5,1.35a41.74,41.74,0,0,1-6.57-1.46c-18-7.11-35.92-14.34-53.88-21.5a28.1,28.1,0,0,0-3.3-.88l-.69,1.39,8,4.4-.18.45-7.46-2.46c0,10.35-.07,20,0,29.6.06,5.66,3.36,7.94,8.93,7.07q32.17-5.06,64.42-9.76c14.66-2.12,29.37-3.87,44.06-5.77,1.27-.16,2.55-.24,3.83-.36l.1.61-8,2.81c.16.62.31,1.24.46,1.86,38.13-5.11,76-12,113.94-18.41l-12,1.34a51.1,51.1,0,0,1,11.2-2.61C741.86,390.16,743.57,389.87,745.29,389.59ZM500.92,332.66c-3.4-1.3-7.51-1.79-10.07-4.05-6.32-5.6-14.11-6.79-21.71-8.75-.41-.11-1,.45-1.27.59l25.63,19.87c.39-6.74,6.14-1,9.21-2.49-.42-1.46-.76-2.64-1.09-3.82l4.29,4.65-1.31-5,32-4.43a275,275,0,0,0-26.79-12.4c-8.75-3.55-17.42-3.5-26.29,1.68,5,.88,5.83,8.46,12.18,6.49.2-.07.7.56.94.94C498.12,328.2,499.51,330.44,500.92,332.66Zm82.75-43,8-2.95-.42-1.21L525,296.87c2.22.26,4.3-.43,6.43-.58a33.57,33.57,0,0,1,5.71.51L537,299h-9.63c5.21,2.42,7,6.89,9,11.12.6,1.21,1,2.79,2,3.5,3.6,2.61,11.45,2.15,15.17-.46a20,20,0,0,1,5.57-3.18c5.26-1.51,7.74-8.15,14.09-7.5.11,0,.25-.18.35-.3Zm-184.33,113c0-4.23,0-7.62,0-11,0-4.53.49-9.11-.12-13.55-.39-2.78-2.74-5.28.1-8,.28-.27-.23-2.09-.73-2.29-6.69-2.63-13.45-5.11-21.2-8,0,11.45-.09,21.42.11,31.38,0,1.13,1.45,2.73,2.61,3.27C386.05,397.17,392.12,399.62,399.34,402.68Zm12-218.09v32.54c4.69-3.95,8.73-7.23,12.58-10.73a3.25,3.25,0,0,0,.31-3.1C420.2,197.28,416,191.38,411.3,184.59Zm-6.64,36.58-13.41-18.75V233.8ZM639.91,155c-11.63-2.82-51.27.71-55,5.11ZM557.17,184.5c-4.46-2.1-25.88.45-28.28,3.07l22.5-1.46.08,1-22.29,3,.34,1.53C538.53,189.67,548.74,192.33,557.17,184.5Zm19.21-47.71.27,1.33,59.59-5.35c0-.41-.08-.82-.11-1.24Zm17.13,135.64c1.42-1.92,3.37-3.64,4-5.76a11.58,11.58,0,0,0-.38-6.73c-.31-.9-2.67-1.1-4.1-1.62-.49,1.86-1.53,3.77-1.37,5.58A59,59,0,0,0,593.51,272.43Zm-71.57-85c-10.67-1-25.08,1.68-27.5,4.73l21.46-3.09.12.58-2.21,1.22C518.26,193.47,519.55,190.13,521.94,187.45ZM472,270.81c1.72-6,4-11.92-.32-18.15A23.69,23.69,0,0,0,472,270.81ZM624,410.69c-.08-.49-.15-1-.23-1.48l-25.82,4.09.21,1.33Zm-158.22-141c5.79-1.74.55-4.95,1.55-7.3.18-.44-1.63-1.73-2.52-2.62-.71,1.15-2.2,2.5-2,3.42C463.42,265.51,464.77,267.62,465.77,269.7Zm36.33,82,4.9,7.06,1.36-1C508.19,354.88,509,351.29,502.1,351.73Zm-.61-158c-.46-.59-.91-1.19-1.36-1.78l-7.25,6,1.1,1.39Z"/><path class="cls-1" d="M707.71,376.57c-15.16-5.16-30.34-10.23-45.45-15.52-6.09-2.14-12-4.75-18-7.15l-.07.09c3.71,1.08,7.48,2,11.13,3.27q24.5,8.57,48.93,17.32a18.8,18.8,0,0,1,3.4,2.08Z"/><path class="cls-1" d="M610.1,343l-43.81-15.21.4-1.16,43.81,15.21C610.36,342.2,610.23,342.59,610.1,343Z"/><path class="cls-1" d="M681.84,378.11c.52,7.16,3.73,14.91-4,21.19Z"/><path class="cls-1" d="M707.63,376.66c4.74,1.35,9.5,2.6,14.2,4.07a77.1,77.1,0,0,1,13.4,5.36c-9.9-.95-18.48-5.93-27.52-9.53Z"/><path class="cls-1" d="M567,405.12,537.57,393.4l.39-1L567.44,404Z"/><path class="cls-1" d="M644.24,353.9l-20.7-6.26.5-1.47L644.17,354Z"/><path class="cls-1" d="M594.87,393.62l11.54,4.09-.55,1.45-11.57-4.52C594.49,394.3,594.68,394,594.87,393.62Z"/><path class="cls-1" d="M598.92,400.2l-11-3.65.37-1.23,11,3.67Z"/><path class="cls-1" d="M384.82,378c3.77,1.26,7.58,2.39,11.27,3.83,2.82,1.1,2.75,1.27,1.58,5.25-4.85-2.38-11.43-1.93-12.75-9.23Z"/><path class="cls-1" d="M384.92,377.86c-.51,2-1,4-1.54,5.95-3.1-1-5.24-7.57-3.13-9.45a2.72,2.72,0,0,1,2.69.12,14.73,14.73,0,0,1,1.88,3.54Z"/></svg>