<svg id="Layer_1" data-name="Layer 1" xmlns="http://www.w3.org/2000/svg" xmlns:xlink="http://www.w3.org/1999/xlink" viewBox="0 0 400 400"><defs><style>.cls-1,.cls-3{fill:none;stroke-miterlimit:10;}.cls-1{stroke:#000;stroke-width:23px;filter:url(#luminosity-noclip);}.cls-2{mask:url(#mask);}.cls-3{stroke:#fff;stroke-width:7px;}.cls-4{fill:#fff;}</style><filter id="luminosity-noclip" x="28.66" y="97.5" width="350.67" height="261.01" filterUnits="userSpaceOnUse" color-interpolation-filters="sRGB"><feFlood flood-color="#fff" result="bg"/><feBlend in="SourceGraphic" in2="bg"/></filter><mask id="mask" x="28.66" y="97.5" width="350.67" height="261.01" maskUnits="userSpaceOnUse"><path class="cls-1" d="M131.56,170.32v72.92c0,26.67,22.18,48.49,49.29,48.49h99V335L347,282.76h0a48.29,48.29,0,0,0,20.81-39.51V170.32c0-26.67-22.18-48.48-49.3-48.48H180.85C153.74,121.84,131.56,143.65,131.56,170.32Z"/></mask></defs><title>faq</title><g class="cls-2"><path class="cls-3" d="M268.44,149.48v72.93c0,26.67-22.18,48.48-49.29,48.48h-99v43.27L53,261.92h0a48.29,48.29,0,0,1-20.81-39.51V149.48c0-26.67,22.18-48.48,49.3-48.48H219.15C246.26,101,268.44,122.81,268.44,149.48Z"/></g><path class="cls-3" d="M131.56,170.32v72.92c0,26.67,22.18,48.49,49.29,48.49h99V335L347,282.76h0a48.29,48.29,0,0,0,20.81-39.51V170.32c0-26.67-22.18-48.48-49.3-48.48H180.85C153.74,121.84,131.56,143.65,131.56,170.32Z"/><path class="cls-4" d="M203.5,214.9c-5-1.75-13.58-8.07-13.58-15.6,0-5.1,3.1-9.27,11.7-16.13,7.39-5.78,11.16-9.68,11.16-14.65s-3.23-9-9.14-9c-8.88,0-14.12,8.34-15.87,8.34-2,0-5.78-3.09-5.78-6.32,0-1.88.67-3.23,2.56-5,4.3-3.63,10.35-4.84,14.52-4.84,12.23,0,21.37,10.62,21.37,21.1,0,5.65-1.88,10.49-9.55,16.81-6.72,5.64-10.35,8.2-10.35,12.63,0,3.63,1.89,6.05,5.52,9.41Zm-3.36,28c-4.84,0-8.33-3.5-8.33-8.6,0-4.84,3.36-8.61,8.33-8.61a8.35,8.35,0,0,1,8.33,8.61A8.19,8.19,0,0,1,200.14,242.86Z"/></svg>