<svg id="Layer_1" data-name="Layer 1" xmlns="http://www.w3.org/2000/svg" viewBox="0 0 400 400"><defs><style>.cls-1{fill:#fff;}</style></defs><title>home</title><path class="cls-1" d="M200,105.69l34.21,30.14q40.36,35.56,80.76,71.1a6.59,6.59,0,0,1,2.54,5.48q-.11,63.06-.06,126.11c0,11.74-6.79,18.46-18.61,18.47q-25.29,0-50.57,0c-11.22,0-18.13-6.87-18.14-18q0-31.61,0-63.2c0-10.79-6.94-17.78-17.69-17.81q-12.63,0-25.28,0c-10.53,0-17.49,7.07-17.5,17.67q0,31.77,0,63.52c0,11.32-6.46,17.8-17.77,17.81q-25.27,0-50.56,0C90,357,83.49,350.5,83.48,339.22q0-63.66.07-127.33a6.22,6.22,0,0,1,1.74-4.19q56.33-50.34,112.78-100.5C198.6,106.73,199.18,106.32,200,105.69Z"/><path class="cls-1" d="M199.84,77.73c-5.16,4.54-10.25,9-15.32,13.47q-65.79,58-131.64,115.89a8.88,8.88,0,0,1-5.22,2c-8.62.19-17.26,0-25.89.11-3.2,0-5.28-1.31-6.38-4.26s.24-4.86,2.34-6.71q85.93-75.43,171.84-150.93c6.63-5.82,15.12-5.7,22.35.52,8.41,7.24,16.69,14.63,25,22q72.36,63.57,144.79,127.09c2.54,2.23,3.55,4.53,3.19,7.73-.31,2.76-1.84,4.48-4.52,4.52-9.66.13-19.32.09-29,0a5.17,5.17,0,0,1-2.91-1.45Q275.17,143.53,201.86,79.4C201.25,78.87,200.62,78.37,199.84,77.73Z"/></svg>