<svg id="Layer_1" data-name="Layer 1" xmlns="http://www.w3.org/2000/svg" viewBox="0 0 400 400"><defs><style>.cls-1{fill:none;stroke:#fff;stroke-width:5px;}</style></defs><title>materials</title><path class="cls-1" d="M352.43,113.49c0,8.86-13.2,17-35.14,23.3-14,4-31.5,7.32-51.42,9.61-2.5.28-5,.56-7.61.81s-5.14.49-7.77.72c-15.8,1.33-32.8,2-50.49,2-4.33,0-8.6,0-12.84-.13l-3.1-.07c-3.42-.09-6.8-.19-10.13-.33l-4.07-.19c-1.4-.06-2.78-.13-4.16-.21q-7.72-.44-15.12-1l-2.53-.21c-.83-.07-1.64-.14-2.44-.23-1.26-.1-2.51-.22-3.76-.35q-3.22-.32-6.39-.67c-.43-.06-.87-.11-1.3-.15-1.25-.14-2.49-.28-3.71-.44s-2.45-.3-3.65-.47-2.42-.32-3.62-.48l-3.51-.51q-5.25-.78-10.21-1.66c-1.9-.34-3.78-.68-5.61-1-1.34-.26-2.67-.52-4-.8q-2.78-.58-5.43-1.19l-.6-.14c-1.76-.4-3.47-.83-5.14-1.25l-.59-.16-2.74-.73c-.9-.23-1.79-.49-2.66-.74-21.94-6.32-35.14-14.44-35.14-23.3C47.57,93.34,115.82,77,200,77S352.43,93.34,352.43,113.49Z"/><path class="cls-1" d="M325.35,222.14c0,4.5-4.17,8.77-11.67,12.59-10.16,5.21-26.39,9.57-46.53,12.61h0c-10.43,1.57-21.9,2.78-34.1,3.54h0c-10.16.65-20.82,1-31.81,1-11.38,0-22.38-.36-32.84-1.06h0c-11.82-.76-22.95-1.95-33.08-3.47h0c-20.13-3-36.37-7.4-46.52-12.61C81.18,230.91,77,226.64,77,222.14s4.18-8.77,11.68-12.59c10.15,5.2,26.39,9.57,46.52,12.6,0,0,0,0,0,0a452.2,452.2,0,0,0,66,4.53,452.4,452.4,0,0,0,65.95-4.53s0,0,0,0c20.14-3,36.37-7.4,46.53-12.6C321.18,213.37,325.35,217.64,325.35,222.14Z"/><path class="cls-1" d="M352.43,286.51C352.43,306.66,284.18,323,200,323S47.57,306.66,47.57,286.51c0-9,13.53-17.18,35.95-23.53q3.56-1,7.4-2h0c20.68,9.53,62.28,16,110.24,16,47.31,0,88.45-6.33,109.4-15.67h0c3.42.88,6.67,1.78,9.71,2.71C340.43,270.29,352.43,278.06,352.43,286.51Z"/><ellipse class="cls-1" cx="200" cy="114.8" rx="71.21" ry="17.05"/><path class="cls-1" d="M324.18,146.57c0,4.38-4,8.55-11.1,12.3-10,5.28-26.3,9.74-46.57,12.81A449.87,449.87,0,0,1,200,176.31a452.89,452.89,0,0,1-65.35-4.45c-20-3-36.28-7.28-46.57-12.39-7.85-3.9-12.26-8.28-12.26-12.9,0-3.42,2.43-6.72,6.89-9.78.87.25,1.76.51,2.66.74l2.74.73.59.16c1.67.42,3.38.85,5.14,1.25l.6.14q2.66.62,5.43,1.19c1.31.28,2.64.54,4,.8,1.83.36,3.71.7,5.61,1q5,.89,10.21,1.66c1.15.18,2.32.34,3.51.51s2.4.33,3.62.48,2.42.32,3.65.47,2.46.3,3.71.44c.43,0,.87.09,1.3.15q3.16.36,6.39.67c1.24.13,2.5.25,3.76.35.8.09,1.61.16,2.44.23l2.53.21q7.39.62,15.12,1c1.38.08,2.76.15,4.16.21l4.07.19c3.33.14,6.71.24,10.13.33l3.1.07c4.24.08,8.51.13,12.84.13,17.69,0,34.69-.72,50.49-2,2.63-.23,5.22-.46,7.77-.72s5.11-.53,7.61-.81c19.92-2.29,37.45-5.58,51.42-9.61C321.75,139.85,324.18,143.15,324.18,146.57Z"/><path class="cls-1" d="M325.35,171.76c0,4.5-4.17,8.77-11.67,12.6-10.16,5.2-26.4,9.57-46.54,12.6h0a451,451,0,0,1-65.95,4.53,450.8,450.8,0,0,1-66-4.53h0c-20.14-3-36.39-7.4-46.54-12.6-7.5-3.83-11.68-8.1-11.68-12.6s4-8.54,11.08-12.29c10.29,5.11,26.54,9.42,46.57,12.39A452.89,452.89,0,0,0,200,176.31a449.87,449.87,0,0,0,66.51-4.63c20.27-3.07,36.54-7.53,46.57-12.81C320.94,162.77,325.35,167.15,325.35,171.76Z"/><path class="cls-1" d="M325.35,197c0,4.5-4.17,8.77-11.67,12.6-10.16,5.2-26.39,9.57-46.53,12.6,0,0,0,0,0,0a452.4,452.4,0,0,1-65.95,4.53,452.2,452.2,0,0,1-66-4.53s0,0,0,0c-20.13-3-36.37-7.4-46.52-12.6C81.18,205.72,77,201.45,77,197s4.18-8.77,11.68-12.59c10.15,5.2,26.4,9.57,46.54,12.6h0a450.8,450.8,0,0,0,66,4.53A451,451,0,0,0,267.13,197h0c20.14-3,36.38-7.4,46.54-12.6C321.18,188.18,325.35,192.46,325.35,197Z"/><path class="cls-1" d="M325.35,247.33c0,4.49-4.17,8.77-11.67,12.59-1,.51-2,1-3.09,1.47h0c-20.95,9.34-62.09,15.67-109.4,15.67-48,0-89.56-6.51-110.24-16h0c-.78-.37-1.53-.72-2.24-1.1C81.18,256.1,77,251.82,77,247.33s4.18-8.77,11.68-12.6c10.15,5.21,26.39,9.57,46.52,12.61h0c10.13,1.52,21.26,2.71,33.08,3.47h0c10.46.7,21.46,1.06,32.84,1.06,11,0,21.65-.34,31.81-1h0c12.2-.76,23.67-2,34.1-3.54h0c20.14-3,36.37-7.4,46.53-12.61C321.18,238.56,325.35,242.83,325.35,247.33Z"/><path class="cls-1" d="M325.35,272.52c0,16.42-55.59,29.73-124.17,29.73S77,288.94,77,272.52c0-3.33,2.3-6.54,6.52-9.54a42.91,42.91,0,0,1,5.16-3.06c.71.38,1.46.73,2.24,1.1h0c20.68,9.53,62.28,16,110.24,16,47.31,0,88.45-6.33,109.4-15.67h0c1.09-.48,2.12-1,3.09-1.47a37.73,37.73,0,0,1,6.62,4.18C323.59,266.77,325.35,269.6,325.35,272.52Z"/></svg>