<svg id="Layer_1" data-name="Layer 1" xmlns="http://www.w3.org/2000/svg" viewBox="0 0 400 400"><defs><style>.cls-1{fill:#000;}.cls-2{fill:none;stroke:#000;stroke-miterlimit:10;stroke-width:6px;}</style></defs><title>quote</title><path class="cls-1" d="M185.83,92.18a67.71,67.71,0,1,1-67.73,67.61A68,68,0,0,1,185.83,92.18Zm-.06,128.92a61.21,61.21,0,1,0-61.17-61.31A61.06,61.06,0,0,0,185.77,221.1Z"/><path class="cls-1" d="M201.23,141.61c-1.9-6.67-5.4-12.82-14.51-12.92C178.78,128.58,175,134.51,175,140c0,5.93,3.28,9.32,11.22,12.71,12,4.77,20.34,10,20.23,20.55,0,11.65-9.74,19.06-21,19.06-7.3.11-13.66-2.12-17.68-3.49-.53-2.44-1.91-9.43-2.76-14.62l3.29-.85c2.43,8.16,7.52,15.47,17.47,15.47,7.2-.11,12.39-4.35,12.39-11.87,0-6-3.28-10.8-12-14.51-12.6-5.4-18.74-10.37-18.74-20,0-9.32,7.2-17.16,20.44-17.16,7,0,10.59,1.27,14.4,1.91.64,3.92,1.17,8.15,2,13.66Zm-14-23.94h3.6l-6.14,84.1H180.9Z"/><rect class="cls-2" x="90" y="69" width="190" height="245"/><polygon class="cls-2" points="310 99 310 344 120 344 120 314 280 314 280 99 310 99"/><line class="cls-2" x1="125" y1="254" x2="250" y2="254"/><line class="cls-2" x1="125" y1="284" x2="250" y2="284"/></svg>