<svg id="Layer_1" data-name="Layer 1" xmlns="http://www.w3.org/2000/svg" viewBox="0 0 400 400"><defs><style>.cls-1{fill:#fff;}</style></defs><title>technology</title><path class="cls-1" d="M300,246.34a119.23,119.23,0,0,1-18.89,29.18,117.8,117.8,0,0,1-30.69,24.79c-1.61.9-3.26,1.59-4.33-.44s.49-3,2.07-3.9a112.16,112.16,0,0,0,56.93-89.78c0-.49,0-1,0-1.83h-9.6c-.85,5.22-1.5,10.72-2.67,16.11a99.55,99.55,0,0,1-21,42.89c-.38.46-.76,1.21-1.21,1.26-1.07.13-2.43.27-3.18-.28-.53-.39-.6-2.06-.23-2.85a22,22,0,0,1,2.7-3.54,95.43,95.43,0,0,0,20.15-51.67c.05-.59.08-1.19.08-1.78a3.12,3.12,0,0,0-.31-.81c-2.92-.16-6-.34-9-.49-5.66-.27-11.31-.5-17-.81a2.8,2.8,0,0,0-3.21,1.77c-2.92,5.91-9,8.55-14.91,6.76s-9.43-7.11-8.89-13.49a12.58,12.58,0,0,1,10.8-11.07c6.37-.77,11.72,2.83,13.79,9.29.18.56.4,1.11.66,1.83l28.51,1.3c-.29-4.26-.37-8.29-.85-12.27a95.85,95.85,0,0,0-12.57-37.25c-.88-1.51-1.9-3.2.06-4.43s3.22.32,4.18,2a101.43,101.43,0,0,1,13.84,48.14c0,1.18,0,2.36,0,3.92l9.8.6C307.45,146.11,264.22,91.75,204.21,87l-.82,9.52c4.9,1,9.68,1.67,14.36,2.84,4.31,1.08,8.52,2.6,12.76,4,1.78.59,4,1.24,2.93,3.82-1,2.34-2.87,1.41-4.57.74a93.79,93.79,0,0,0-25.75-6.17l-.85,10c4.78,1,9.38,1.78,13.85,3a85.19,85.19,0,0,1,44.65,29.12c.56.69,1.34,1.42,1.44,2.2a3.2,3.2,0,0,1-.82,2.56,3,3,0,0,1-2.64.11,8.83,8.83,0,0,1-2.22-2.36C242.17,129.3,224,119.38,201.8,117c-4.41-.48-4.67-.74-4.37-5.12l.71-10.85c-5.43.25-10.62.48-15.8.75-1.19.06-2.37.3-3.55.46-3.4.46-6.38.73-7.62,5.23s-6.58,6.59-10.95,5.79a10.66,10.66,0,0,1-3-20.16,10.58,10.58,0,0,1,12.52,2.45A28.64,28.64,0,0,1,171.61,98l26.92-2.25c.25-3.22.55-6.75.79-10.29.23-3.33.88-3.91,4.27-3.65,50.31,3.75,94.13,42.5,104.17,92a118.07,118.07,0,0,1-4.95,65.63c-.17.47-.34.93-.49,1.41a6.53,6.53,0,0,0-.13.92c.87.38,1.82.83,2.79,1.22l29.55,11.87c3.33,1.34,3.64,2.1,2.23,5.38a153.94,153.94,0,0,1-38.44,53.56c-1.57,1.42-2.2,2.46-1.36,4.71a12.22,12.22,0,0,1-5.54,14.88,12.58,12.58,0,0,1-16.48-18.28,12.3,12.3,0,0,1,15.39-4c2,1,3.08.67,4.59-.71a151.94,151.94,0,0,0,35.3-47.53c.55-1.15,1-2.33,1.7-3.78Zm-14.82,83.83a7.63,7.63,0,1,0-7.8-7.63A7.7,7.7,0,0,0,285.19,330.17ZM249.28,206.56a7.72,7.72,0,1,0-7.7-7.77A7.73,7.73,0,0,0,249.28,206.56Zm-87.41-98.17a5.79,5.79,0,0,0,5.78-5.6,6,6,0,0,0-5.81-5.93,5.77,5.77,0,0,0-5.71,6A5.61,5.61,0,0,0,161.87,108.39Z"/><path class="cls-1" d="M93.06,138l-12.08-6C72.79,143,63,173.31,63.52,186.15c5,1.74,8.53,4.86,9.46,10.37a12.55,12.55,0,0,1-24.08,6.62c-2.35-6,.07-13.1,6-15.62,3-1.28,3.64-3,4-5.88A133,133,0,0,1,75.58,131.1c.19-.34.32-.71.61-1.38l-13.87-6.88c-.58,1-1.17,1.81-1.67,2.73a148.94,148.94,0,0,0-12.86,31.32c-.16.57-.16,1.35-.54,1.67a28.25,28.25,0,0,1-3.08,2c-.51-1.13-1.66-2.42-1.43-3.37a111.79,111.79,0,0,1,3.69-11.93q21.34-57.54,75.74-86c1.72-.9,2.71-1.71,2.67-4-.07-5,3.53-9,8.51-10.07a10.68,10.68,0,1,1-4.23,19.13c-.79-.58-1.51-1.27-2.38-2a152.47,152.47,0,0,0-62,56.07c.83.48,1.32.81,1.84,1.07l12.17,6c.62-.87,1.21-1.64,1.76-2.44,23.49-34,55.68-54,96.65-59.36,8.13-1.07,16.46-.59,24.69-.78,1.89,0,3.94.29,3.75,2.73s-2.24,2.22-4.13,2.15C151.78,66,112.72,85.67,84.22,126.39c-.23.32-.39.69-.79,1.41L95.91,134c3.7,1.84,3.87,2.48,1.69,6.1a110.73,110.73,0,0,0-15.82,48.53c-.15,1.83-.49,3.63-2.71,3.48s-2.29-2-2.14-3.83a115.36,115.36,0,0,1,14.14-46.66C91.64,140.54,92.23,139.51,93.06,138Zm-32.53,52.9a7.65,7.65,0,1,0,7.72,7.71A7.54,7.54,0,0,0,60.53,190.93ZM141.14,55.6a5.78,5.78,0,0,0-5.73-5.67,5.93,5.93,0,0,0-5.83,5.92,6,6,0,0,0,5.79,5.69A5.84,5.84,0,0,0,141.14,55.6Z"/><path class="cls-1" d="M218.53,326.53c-.62-15.87-1.22-31.43-1.81-46.89C204,275,199,268.46,200.61,258.73a17.53,17.53,0,0,1,34.4-.84c1.94,9.49-2.53,16.69-13,21,0,4.19-.12,8.35,0,12.5q.61,17.71,1.44,35.44c.12,2.53-.7,3.78-3.28,4.32C166.53,342.47,109,318.25,79.57,271.93c-1.92-3-1.77-3.72,1.32-5.68,8.22-5.2,16.44-10.38,24.82-15.67-.46-.91-.82-1.69-1.24-2.44a101.57,101.57,0,0,1-13-53.72,9.23,9.23,0,0,1,.35-3.52c.45-1,1.6-1.62,2.45-2.4.77,1,2.16,1.89,2.22,2.89.23,4.26-.19,8.55.09,12.79A96.86,96.86,0,0,0,178,294.08c2.35.39,4.73.58,7.1.8,1.73.16,3.39.63,3.28,2.65-.12,2.21-1.83,2.44-3.74,2.25-30.91-3.07-55.52-17.2-74-42.08-.59-.79-1.15-1.61-1.75-2.4a3.24,3.24,0,0,0-.65-.48L84.13,270c15.69,23.28,36.23,40.13,62.21,50.16C169.68,329.16,193.68,331.13,218.53,326.53Zm11.95-64.91A12.63,12.63,0,0,0,217.78,249a12.66,12.66,0,0,0,.1,25.31A12.54,12.54,0,0,0,230.48,261.62Z"/><path class="cls-1" d="M314.15,135.63l13.62-6.79c-.54-1.09-.95-2-1.41-2.82a152.66,152.66,0,0,0-32.2-40.69c-1.21-1.09-2.11-1.87-4.08-.89a12.29,12.29,0,0,1-15.63-3.94,12.58,12.58,0,0,1,17.07-17.88,12.72,12.72,0,0,1,4.77,15.49c-.22.55-.46,1.08-.74,1.74.48.5.91,1,1.42,1.48a155.44,155.44,0,0,1,47.49,77.26,3.86,3.86,0,0,0,3.4,3.33c5.87,1.3,9.65,6.63,9.42,12.79a12.58,12.58,0,0,1-24.18,4.1c-2.22-5.4-.47-11.94,4.5-15,2.35-1.45,2.76-2.77,1.89-5.2-3-8.38-5.84-16.81-8.9-25.68l-14.19,7c2.62,7.58,5.41,14.78,7.59,22.17,4.33,14.62,5.55,29.61,4.67,44.8-.11,1.86-.45,3.64-2.64,3.54s-2.3-2-2.2-3.8c1.44-25.73-3.82-49.95-16.53-72.42-2.73-4.82-6-9.36-9.05-14-1-1.5-2-3-.18-4.39s3.14,0,4.11,1.48C306.11,123.32,310,129.3,314.15,135.63Zm-21.8-62.42a7.67,7.67,0,0,0-7.74-7.69,7.66,7.66,0,1,0,0,15.32A7.63,7.63,0,0,0,292.35,73.21Zm52.5,93.19a7.64,7.64,0,1,0,7.63,7.82A7.69,7.69,0,0,0,344.85,166.4Z"/><path class="cls-1" d="M90.78,302.57c0,.33.14,1.17-.19,1.69-2.17,3.47.1,5.24,2.42,7.27,24.93,21.8,53.89,34.19,86.81,37.46,1.63.16,2.61-.06,3.47-1.78a10.29,10.29,0,0,1,12.24-5.48,10.62,10.62,0,0,1,7.87,10.63,10.75,10.75,0,0,1-8.85,10.19c-4.79.93-9.51-1.8-11.83-6.58a4,4,0,0,0-2.63-2.06Q127,349,87.57,313.08a3.8,3.8,0,0,0-4.41-.93A10.31,10.31,0,0,1,71.38,308a10.68,10.68,0,0,1,12.31-16.13A10.7,10.7,0,0,1,90.78,302.57Zm102,55.21a5.89,5.89,0,0,0,5.73-5.71,5.81,5.81,0,1,0-11.61.15A5.88,5.88,0,0,0,192.81,357.78Zm-112.55-50a5.8,5.8,0,1,0-.16-11.6,5.8,5.8,0,0,0,.16,11.6Z"/><path class="cls-1" d="M106.79,200.52c0-1.2-.09-2.4,0-3.58a4.26,4.26,0,0,0-1.83-4.28,7.48,7.48,0,0,1-2.16-9.14,7.92,7.92,0,0,1,15.07,1.83,7.48,7.48,0,0,1-4,8.21c-1.87.89-2.32,2-2.29,3.88.41,29.36,12.76,52.32,36.8,69.09,1.52,1.06,4.21,1.84,2.67,4.4-1.63,2.72-3.67.8-5.3-.33C121.13,253.71,108.32,230.24,106.79,200.52ZM109.11,190l1.35.1c.85-1,2.14-1.85,2.45-3,.49-1.74-.53-3.1-2.45-3.32s-3.31.8-3.23,2.61C107.29,187.62,108.44,188.8,109.11,190Z"/><path class="cls-1" d="M190.43,321c-2.49-.06-4.75-1.64-6.48-4.39a4.81,4.81,0,0,0-3-2.09,116.62,116.62,0,0,1-63.26-27.21c-.53-.45-1.35-.89-1.45-1.44-.18-1-.3-2.41.23-3.15.38-.53,2.08-.63,2.84-.24a24.51,24.51,0,0,1,3.73,2.93,112.07,112.07,0,0,0,58,24.21,4.15,4.15,0,0,0,4.29-1.7,7.49,7.49,0,0,1,9.68-1.76,7.81,7.81,0,0,1,3.85,8.85C197.86,318.59,194.85,321,190.43,321Zm4.1-7.14,0-1.41c-1.13-.77-2.35-2.25-3.36-2.12s-2.09,1.74-3.12,2.71c1,1,1.87,2.71,3,2.89S193.37,314.63,194.53,313.88Z"/><path class="cls-1" d="M249.86,56.39A10.12,10.12,0,0,1,260.23,46.1a10.24,10.24,0,0,1,10.29,10.14,10.44,10.44,0,0,1-10.28,10.53A10.32,10.32,0,0,1,249.86,56.39Zm15.71,0a5.44,5.44,0,0,0-5.44-5.51,5.52,5.52,0,0,0-5.43,5.57A5.42,5.42,0,0,0,260,61.79,5.32,5.32,0,0,0,265.57,56.42Z"/><path class="cls-1" d="M354.39,203.86a10.33,10.33,0,0,1-10.47,10.28,10.49,10.49,0,0,1-10.18-10.35,10.32,10.32,0,0,1,10.4-10.36A10.17,10.17,0,0,1,354.39,203.86Zm-4.82-.21a5.57,5.57,0,0,0-5.54-5.41,5.49,5.49,0,0,0-5.34,5.59,5.3,5.3,0,0,0,5.51,5.33A5.39,5.39,0,0,0,349.57,203.65Z"/><path class="cls-1" d="M241.06,45.6a8.37,8.37,0,1,1-16.74.19,8.37,8.37,0,1,1,16.74-.19Zm-9.35,3.71c3.17-.31,4.52-1.5,4.48-3.72a3.23,3.23,0,0,0-3.45-3.37c-2.21,0-3.79,1.46-3.45,3.58C229.51,47.2,231,48.4,231.71,49.31Z"/><path class="cls-1" d="M346.75,233.37a8.34,8.34,0,0,1-8.31,8.31,8.48,8.48,0,0,1-8.49-8.5,8.38,8.38,0,0,1,8.67-8.26A8.21,8.21,0,0,1,346.75,233.37Zm-11.9-.07c.29,2.23,1.54,3.57,3.7,3.46a3.2,3.2,0,0,0,3.28-3.72,3.17,3.17,0,0,0-3.46-3.24C336.11,229.8,335.09,231.24,334.85,233.3Z"/><path class="cls-1" d="M77.17,259a3.41,3.41,0,0,1-3.37-3.68,3.32,3.32,0,0,1,3.58-3.51A3.53,3.53,0,0,1,81,255.63,3.61,3.61,0,0,1,77.17,259Z"/><path class="cls-1" d="M74.86,240.21a3.55,3.55,0,0,1-3.49,3.69,3.65,3.65,0,0,1-3.74-3.75,3.45,3.45,0,0,1,3.66-3.5C73.42,236.67,74.71,238,74.86,240.21Z"/><path class="cls-1" d="M66.06,228a3.33,3.33,0,0,1-3.32-3.44A3.26,3.26,0,0,1,66,220.82a3.46,3.46,0,0,1,3.84,3.52A3.66,3.66,0,0,1,66.06,228Z"/><path class="cls-1" d="M253.16,199a3.91,3.91,0,0,1-7.81-.12,3.91,3.91,0,1,1,7.81.12Z"/><path class="cls-1" d="M60.57,194.93a3.6,3.6,0,0,1,3.66,3.54,3.64,3.64,0,0,1-3.75,3.74,3.49,3.49,0,0,1-3.5-3.68C57,196.36,58.4,195.16,60.57,194.93Z"/></svg>