<svg id="Layer_1" data-name="Layer 1" xmlns="http://www.w3.org/2000/svg" viewBox="0 0 250 42"><defs><style>.cls-1{isolation:isolate;}.cls-2{fill:#fff;}</style></defs><title>Replik8</title><g class="cls-1"><path class="cls-2" d="M18.4,1V35.45a2.42,2.42,0,0,0,.44,1.64,1,1,0,0,0,.44.37c.13,0,.58.17,1.35.37A1.55,1.55,0,0,1,22,39.44a1.39,1.39,0,0,1-.76,1.23,3.68,3.68,0,0,1-1.85.35H4.6A2.89,2.89,0,0,1,3,40.63,1.31,1.31,0,0,1,2.4,39.5a1.55,1.55,0,0,1,1.17-1.59c.65-.21,1-.34,1.13-.39A.9.9,0,0,0,5,37.18a2.53,2.53,0,0,0,.35-1.49V6.36A2.53,2.53,0,0,0,5,4.87a.9.9,0,0,0-.34-.34c-.11,0-.48-.18-1.13-.39A1.55,1.55,0,0,1,2.4,2.55,1.27,1.27,0,0,1,3,1.43,2.81,2.81,0,0,1,4.6,1H18.4Zm9,20.39a25,25,0,0,1,4.15.91,9.84,9.84,0,0,1,2.62,1.35,6.27,6.27,0,0,1,1.89,2.16,5.67,5.67,0,0,1,.66,2.67v6.06c0,.63.2.94.61.94a.6.6,0,0,0,.4-.13,3.25,3.25,0,0,0,.45-.51,2,2,0,0,1,1.5-1,1.4,1.4,0,0,1,1,.53,1.51,1.51,0,0,1,.5,1.05,4.32,4.32,0,0,1-.86,2.22A10.08,10.08,0,0,1,38.14,40a7.75,7.75,0,0,1-2.6,1.4,11.63,11.63,0,0,1-3.31.42,8.1,8.1,0,0,1-6-2.21A8.45,8.45,0,0,1,24,33.43V28.51c0-1.09,0-1.73,0-1.9a3.91,3.91,0,0,0-.82-2,3.51,3.51,0,0,0-2.43-1.2V20.25A4.52,4.52,0,0,0,23,19.43a2.68,2.68,0,0,0,.8-1.2,6.76,6.76,0,0,0,.22-2V8.47a4.43,4.43,0,0,0-.71-2.75,4.93,4.93,0,0,0-2.6-1.44V1h.76c2.17,0,4,.08,5.54.23a12.29,12.29,0,0,1,6.07,2.23,9,9,0,0,1,3.83,7.76A9.3,9.3,0,0,1,34.34,18a9.13,9.13,0,0,1-2.54,1.82A31.36,31.36,0,0,1,27.39,21.42Z"/><path class="cls-2" d="M60.35,1V41H46.55a2.85,2.85,0,0,1-1.62-.39,1.31,1.31,0,0,1-.57-1.13,1.55,1.55,0,0,1,1.17-1.59c.64-.21,1-.34,1.13-.39a.89.89,0,0,0,.33-.34,2.46,2.46,0,0,0,.35-1.49V6.36A2.46,2.46,0,0,0,47,4.87a.89.89,0,0,0-.33-.34c-.11,0-.49-.18-1.13-.39a1.55,1.55,0,0,1-1.17-1.59,1.27,1.27,0,0,1,.57-1.12A2.77,2.77,0,0,1,46.55,1h13.8Zm2.46,21.33V19a7.53,7.53,0,0,0,2.52-1.79,6,6,0,0,0,1.2-2.58,3.37,3.37,0,0,1,.62-1.53,1.35,1.35,0,0,1,1.08-.43,1.3,1.3,0,0,1,1.29.73,4.4,4.4,0,0,1,.21,1.73V26.25a4.2,4.2,0,0,1-.31,1.91,1.2,1.2,0,0,1-1.13.53,1.36,1.36,0,0,1-1.05-.41,3.18,3.18,0,0,1-.62-1.38,7.5,7.5,0,0,0-1.42-3.11A4.38,4.38,0,0,0,62.81,22.36ZM63,1H74.77V11.4a2,2,0,0,1-.36,1.32,1.38,1.38,0,0,1-1.11.41,1.43,1.43,0,0,1-.94-.26,2.62,2.62,0,0,1-.55-1.09A11,11,0,0,0,68.54,6.6,10.07,10.07,0,0,0,63,4.46Zm0,40V37.86A13.73,13.73,0,0,0,66.14,37a9.73,9.73,0,0,0,2.5-1.62,10.33,10.33,0,0,0,2-2.24,14.74,14.74,0,0,0,1.42-3.06,3.44,3.44,0,0,1,.67-1.27,1.34,1.34,0,0,1,1-.34,1.26,1.26,0,0,1,1.14.48,3.18,3.18,0,0,1,.33,1.69V41Z"/><path class="cls-2" d="M95.57,1V35.45A2.42,2.42,0,0,0,96,37.09a1,1,0,0,0,.44.37c.13,0,.58.17,1.34.37a1.56,1.56,0,0,1,1.41,1.61,1.39,1.39,0,0,1-.76,1.23,3.68,3.68,0,0,1-1.85.35H81.77a2.87,2.87,0,0,1-1.63-.39,1.31,1.31,0,0,1-.57-1.13,1.55,1.55,0,0,1,1.17-1.59c.65-.21,1-.34,1.13-.39a.9.9,0,0,0,.34-.34,2.53,2.53,0,0,0,.35-1.49V6.36a2.53,2.53,0,0,0-.35-1.49.9.9,0,0,0-.34-.34c-.11,0-.48-.18-1.13-.39a1.55,1.55,0,0,1-1.17-1.59,1.27,1.27,0,0,1,.57-1.12A2.78,2.78,0,0,1,81.77,1h13.8ZM98.06,25.7V22.56A6.24,6.24,0,0,0,99.83,22a2.74,2.74,0,0,0,.89-1,6.51,6.51,0,0,0,.62-3.07V8.5a7.39,7.39,0,0,0-.21-2,2.67,2.67,0,0,0-.82-1.23,4,4,0,0,0-2.28-1V1q6,0,8.9,1.14a11.46,11.46,0,0,1,5.25,4.05,11.51,11.51,0,0,1,2,6.82,12.64,12.64,0,0,1-2,7.38,11.58,11.58,0,0,1-5.57,4.19A25.68,25.68,0,0,1,98.06,25.7Z"/><path class="cls-2" d="M133.74,41h-13.8a2.85,2.85,0,0,1-1.62-.39,1.3,1.3,0,0,1-.58-1.13,1.55,1.55,0,0,1,1.18-1.59c.64-.21,1-.34,1.12-.39a.9.9,0,0,0,.34-.34,2.46,2.46,0,0,0,.35-1.49V6.36a2.46,2.46,0,0,0-.35-1.49.9.9,0,0,0-.34-.34c-.1,0-.48-.18-1.12-.39a1.55,1.55,0,0,1-1.18-1.59,1.26,1.26,0,0,1,.58-1.12,2.77,2.77,0,0,1,1.62-.4h14.83a3.63,3.63,0,0,1,1.84.35,1.39,1.39,0,0,1,.76,1.23A1.55,1.55,0,0,1,136,4.22c-.76.18-1.21.3-1.35.35a1.34,1.34,0,0,0-.44.36,2.53,2.53,0,0,0-.44,1.64Zm2.37,0V37.74a12.76,12.76,0,0,0,2.27-.59,5.6,5.6,0,0,0,1.6-.94,9.8,9.8,0,0,0,2.26-2.66,17.11,17.11,0,0,0,1.67-3.78,7.3,7.3,0,0,1,.86-2.12,1.35,1.35,0,0,1,1.16-.52,1.29,1.29,0,0,1,1.2.68,3,3,0,0,1,.17,1.29V41Z"/><path class="cls-2" d="M165.73,41H151.9a2.85,2.85,0,0,1-1.62-.39,1.31,1.31,0,0,1-.57-1.13,1.55,1.55,0,0,1,1.17-1.59c.64-.21,1-.34,1.13-.39a.89.89,0,0,0,.33-.34,2.46,2.46,0,0,0,.36-1.49V6.36a2.46,2.46,0,0,0-.36-1.49.89.89,0,0,0-.33-.34c-.11,0-.49-.18-1.13-.39a1.55,1.55,0,0,1-1.17-1.59,1.27,1.27,0,0,1,.57-1.12A2.77,2.77,0,0,1,151.9,1h14.59a2.78,2.78,0,0,1,1.63.4,1.27,1.27,0,0,1,.57,1.12,1.55,1.55,0,0,1-1.17,1.59c-.64.21-1,.34-1.13.39a.9.9,0,0,0-.34.34,2.53,2.53,0,0,0-.35,1.49V35.69a2.53,2.53,0,0,0,.35,1.49.9.9,0,0,0,.34.34c.11,0,.49.18,1.13.39a1.55,1.55,0,0,1,1.17,1.59,1.31,1.31,0,0,1-.57,1.13,2.87,2.87,0,0,1-1.63.39Z"/><path class="cls-2" d="M190.14,41H176.31a2.89,2.89,0,0,1-1.63-.39,1.31,1.31,0,0,1-.57-1.13,1.55,1.55,0,0,1,1.17-1.59c.65-.21,1-.34,1.13-.39a.9.9,0,0,0,.34-.34,2.53,2.53,0,0,0,.35-1.49V6.36a2.53,2.53,0,0,0-.35-1.49.9.9,0,0,0-.34-.34c-.11,0-.48-.18-1.13-.39a1.55,1.55,0,0,1-1.17-1.59,1.27,1.27,0,0,1,.57-1.12,2.81,2.81,0,0,1,1.63-.4H190.9a2.77,2.77,0,0,1,1.62.4,1.26,1.26,0,0,1,.58,1.12,1.55,1.55,0,0,1-1.18,1.59c-.64.21-1,.34-1.12.39a.9.9,0,0,0-.34.34,2.46,2.46,0,0,0-.35,1.49V35.69c0,1.09.28,1.74.85,1.93l.91.29A1.51,1.51,0,0,1,193,39.5c0,1-.69,1.52-2.08,1.52Zm11.6-28.39,8.85,23.15a5.14,5.14,0,0,0,.73,1.42,2.4,2.4,0,0,0,1,.74,6,6,0,0,1,.8.44,1.5,1.5,0,0,1,.41,1.09c0,1-.74,1.55-2.2,1.55H196.58a2.62,2.62,0,0,1-1.62-.44,1.5,1.5,0,0,1-.58-1.26,1.63,1.63,0,0,1,1.09-1.46,4,4,0,0,0,.91-.55.88.88,0,0,0,.26-.6,4.55,4.55,0,0,0-.23-.93l-3.75-11.2a8.19,8.19,0,0,1-.53-2.63,3.91,3.91,0,0,1,.85-2.23l7-9.87A4.88,4.88,0,0,0,201,7a2.86,2.86,0,0,0-.44-1.53,2.43,2.43,0,0,0-1.17-1L198.31,4a1.43,1.43,0,0,1-1-1.38,1.58,1.58,0,0,1,.62-1.29A2.23,2.23,0,0,1,199.28,1h10.43a2.51,2.51,0,0,1,1.59.45,1.56,1.56,0,0,1,.58,1.28,1.83,1.83,0,0,1-1.35,1.76L209,5.13a9.52,9.52,0,0,0-2.46,1.58,19.59,19.59,0,0,0-2.75,3.14Z"/><path class="cls-2" d="M231.33,3.37a3.4,3.4,0,0,0-1.58,1.38,6.88,6.88,0,0,0-.36,2.7v8.08a4.84,4.84,0,0,0,.36,1.85,2.77,2.77,0,0,0,.6.91,3.05,3.05,0,0,0,1,.58V22a2.9,2.9,0,0,0-1.5,1.14,4.1,4.1,0,0,0-.44,2.08v10a4.82,4.82,0,0,0,.39,2,2,2,0,0,0,.55.82,2.67,2.67,0,0,0,1,.44v3.05l-.59,0a23.66,23.66,0,0,1-5.27-.62,14.75,14.75,0,0,1-2.71-.86,9.63,9.63,0,0,1-2.07-1.3,9.3,9.3,0,0,1-3.31-7.48,10.93,10.93,0,0,1,1-4.77,9.56,9.56,0,0,1,3-3.6,11.23,11.23,0,0,1,2.27-1.35,28.52,28.52,0,0,1,3.24-1.14,22.9,22.9,0,0,1-3.15-1.13,10.34,10.34,0,0,1-2.16-1.36A8.57,8.57,0,0,1,218.5,11a9.79,9.79,0,0,1,1.4-5.17,9.67,9.67,0,0,1,3.9-3.62A18.45,18.45,0,0,1,231.33.53Zm2,0V.53a18.6,18.6,0,0,1,7.56,1.64,9.58,9.58,0,0,1,3.89,3.62A9.79,9.79,0,0,1,246.21,11a8.55,8.55,0,0,1-3.08,6.92A10.27,10.27,0,0,1,241,19.24a22.9,22.9,0,0,1-3.15,1.13,28.52,28.52,0,0,1,3.24,1.14,11.23,11.23,0,0,1,2.27,1.35,9.44,9.44,0,0,1,3,3.6,10.79,10.79,0,0,1,1,4.77A9.27,9.27,0,0,1,244,38.71,8.8,8.8,0,0,1,242,40a13.71,13.71,0,0,1-2.71.83,30.64,30.64,0,0,1-5.31.62l-.41,0V38.47a2.59,2.59,0,0,0,1-.44,2,2,0,0,0,.56-.82,5,5,0,0,0,.38-2v-10a3.75,3.75,0,0,0-.19-.92,9.17,9.17,0,0,0-.37-1.07,2.24,2.24,0,0,0-.55-.71,3.94,3.94,0,0,0-1-.52V18.87a3.35,3.35,0,0,0,1-.6,2.18,2.18,0,0,0,.54-.89,9.72,9.72,0,0,0,.32-1,6.94,6.94,0,0,0,.21-.82V7.45a5.08,5.08,0,0,0-.18-1.06L235,4.78A3.15,3.15,0,0,0,233.35,3.37Z"/></g></svg>